<svg width="0" height="0" class="hidden">
  <symbol xmlns="http://www.w3.org/2000/svg" viewBox="0 0 14 14" id="activity-cross">
    <path d="M374.5,409.078l-1.41-1.41-5.59,5.59-5.59-5.59-1.41,1.41,5.59,5.59-5.59,5.59,1.41,1.41,5.59-5.59,5.59,5.59,1.41-1.41-5.59-5.59Z"
          transform="translate(-360.5 -407.668)" fill="#ed1c24"/>
  </symbol>
  <symbol xmlns="http://www.w3.org/2000/svg" viewBox="0 0 18 18" id="activity-edit">
    <path d="M358.5,540.918v3.75h3.75l11.06-11.06-3.75-3.75Zm17.71-10.21a1,1,0,0,0,0-1.41l-2.34-2.34a1,1,0,0,0-1.41,0l-1.83,1.83,3.75,3.75Z" transform="translate(-358.5 -526.668)" fill="#c3d8e5"/>
  </symbol>
  <symbol xmlns="http://www.w3.org/2000/svg" viewBox="0 0 20 10" id="activity-link">
    <path d="M359.4,774.668a3.1,3.1,0,0,1,3.1-3.1h4v-1.9h-4a5,5,0,0,0,0,10h4v-1.9h-4a3.1,3.1,0,0,1-3.1-3.1Zm4.1,1h8v-2h-8Zm9-6h-4v1.9h4a3.1,3.1,0,0,1,0,6.2h-4v1.9h4a5,5,0,0,0,0-10Z"
          transform="translate(-357.5 -769.668)" fill="#00eba8"/>
  </symbol>
  <symbol xmlns="http://www.w3.org/2000/svg" viewBox="0 0 18 18" id="activity-sent">
    <path d="M374.5,646.668H360.49a1.983,1.983,0,0,0-1.98,1.984v.016l-.01,14a1.991,1.991,0,0,0,1.982,2H374.5a2.005,2.005,0,0,0,2-2v-14A2.006,2.006,0,0,0,374.5,646.668Zm0,12h-4a3,3,0,0,1-6,0h-4.01v-10H374.5Zm-3-5h-2v-3h-4v3h-2l4,4Z" transform="translate(-358.5 -646.668)" fill="#c3d8e5"/>
  </symbol>
  <symbol xmlns="http://www.w3.org/2000/svg" viewBox="0 0 22 16" id="activity-user">
    <path d="M370.5,1013.668a4,4,0,1,0-4-4A4,4,0,0,0,370.5,1013.668Zm-9-2v-3h-2v3h-3v2h3v3h2v-3h3v-2Zm9,4c-2.67,0-8,1.34-8,4v2h16v-2C378.5,1017.008,373.17,1015.668,370.5,1015.668Z" transform="translate(-356.5 -1005.668)" fill="#c3d8e5"/>
  </symbol>
  <symbol xmlns="http://www.w3.org/2000/svg" viewBox="0 0 22 15.003" id="activity-view">
    <path d="M367.5,827.167a11.828,11.828,0,0,0-11,7.5,11.817,11.817,0,0,0,22,0A11.828,11.828,0,0,0,367.5,827.167Zm0,12.5a5,5,0,1,1,5-5A5,5,0,0,1,367.5,839.667Zm0-8a3,3,0,1,0,3,3A3,3,0,0,0,367.5,831.667Z" transform="translate(-356.5 -827.167)" fill="#00eba8"/>
  </symbol>
  <symbol xmlns="http://www.w3.org/2000/svg" viewBox="0 0 18 10.41" id="activity-arrow">
    <path d="M375.09,590.463l-7.59,7.59-5.59-5.59h4.59v-2h-8v8h2v-4.59l7,7,9-9Z" transform="translate(-358.5 -590.463)" fill="#ed1c24"/>
  </symbol>
  <symbol xmlns="http://www.w3.org/2000/svg" fill="currentColor" viewBox="0 0 8 8" id="back-arrow">
    <path d="M12,7.5H5.915l2.8-2.8L8,4,4,8l4,4,.705-.7L5.915,8.5H12Z" transform="translate(-4 -4)"/>
  </symbol>
  <symbol xmlns="http://www.w3.org/2000/svg" viewBox="0 0 21.073 21.264" id="bell">
    <g transform="translate(-2973.442 -1086.868)">
      <path d="M2986.709,1105.274a2.108,2.108,0,0,1-2.108,2.108h0a2.106,2.106,0,0,1-2.1-2.1v.34m9-6h-14m-1-4.63v3.565a4.139,4.139,0,0,1-.71,2.318l-1.4,2.068a1.059,1.059,0,0,0,.261,1.485,1.079,1.079,0,0,0,.586.194h17.474a1.063,1.063,0,0,0,1.053-1.073,1.051,1.051,0,0,0-.2-.606l-1.348-2.056a4.24,4.24,0,0,1-.713-2.351v-3.551a7.363,7.363,0,0,0-7.367-7.363h-.267A7.37,7.37,0,0,0,2976.5,1094.988Z" fill="none" stroke="currentColor" stroke-linecap="round" stroke-linejoin="round" stroke-width="1.5"/>
    </g>
  </symbol>
  <symbol xmlns="http://www.w3.org/2000/svg" viewBox="0 0 15.29 20" fill="currentColor" id="bookmarks-i">
    <g transform="translate(-1776.855 -1590.399)">
      <path d="M1790.381,1590.4h-11.755a1.763,1.763,0,0,0-1.764,1.763v2.939h15.282v-2.939A1.763,1.763,0,0,0,1790.381,1590.4Zm.588,3.526h-12.931v-1.763a.588.588,0,0,1,.588-.588h11.755a.589.589,0,0,1,.588.588Z"></path>
      <rect width="1.176" height="4.702" transform="translate(1790.969 1596.276)"></rect>
      <path d="M1792.144,1604.505v4a1.873,1.873,0,0,1-1.105,1.763,1.663,1.663,0,0,1-1.834-.358l-4.343-4.115a.529.529,0,0,0-.729,0l-4.344,4.115a1.7,1.7,0,0,1-1.163.476,1.675,1.675,0,0,1-.665-.141,1.878,1.878,0,0,1-1.105-1.764v-12.2h1.176V1608.5a.692.692,0,0,0,.394.664.505.505,0,0,0,.587-.111l4.344-4.115a1.7,1.7,0,0,1,2.351,0l4.344,4.115a.506.506,0,0,0,.587.111.7.7,0,0,0,.33-.664v-4Z"></path>
      <rect width="2.351" height="1.763" transform="translate(1783.328 1597.452)"></rect>
      <rect width="1.176" height="1.176" transform="translate(1790.969 1602.154)"></rect>
    </g>
  </symbol>
  <symbol xmlns="http://www.w3.org/2000/svg" viewBox="0 0 18.261 30" id="bulb">
    <path d="M3136.528,1079.773h9.13v1.305h-1.3s.062,10.3.062,11.058a9.13,9.13,0,1,1-6.613-.013c0-1.721.029-11.045.029-11.045h-1.3Z" transform="translate(-3131.963 -1079.773)" fill="currentColor" fill-rule="evenodd"/>
    <path d="M3139.137,1082.382h3.913s-.034,9.983-.034,10.673a7.824,7.824,0,1,1-3.9.013C3139.116,1090.9,3139.137,1082.382,3139.137,1082.382Z" transform="translate(-3131.963 -1079.773)" fill="#fff" fill-rule="evenodd"/>
    <path d="M3147.55,1100.82a6.457,6.457,0,0,1-12.913,0C3139.834,1100.82,3147.55,1093.472,3147.55,1100.82Z" transform="translate(-3131.963 -1079.773)" fill="currentColor" fill-rule="evenodd"/>
    <path d="M3145.984,1099.99a.979.979,0,1,1-.978.979A.978.978,0,0,1,3145.984,1099.99Z" transform="translate(-3131.963 -1079.773)" fill="#fff" fill-rule="evenodd"/>
    <path d="M3144.68,1102.6a.979.979,0,1,1-.978.979A.978.978,0,0,1,3144.68,1102.6Z" transform="translate(-3131.963 -1079.773)" fill="#fff" fill-rule="evenodd"/>
  </symbol>
  <symbol xmlns="http://www.w3.org/2000/svg" viewBox="0 0 19.143 20" id="calendar">
    <g transform="translate(-2823.928 -1687.5)">
      <rect width="17.143" height="17.143" rx="1.905" transform="translate(2824.928 1689.357)" stroke-width="2" stroke="currentColor" stroke-linecap="round" stroke-linejoin="round" fill="none"/>
      <line y2="3.429" transform="translate(2836.928 1688.5)" fill="none" stroke="currentColor" stroke-linecap="round" stroke-linejoin="round" stroke-width="2"/>
      <line y2="3.429" transform="translate(2830.072 1688.5)" fill="none" stroke="currentColor" stroke-linecap="round" stroke-linejoin="round" stroke-width="2"/>
      <line x2="15.429" transform="translate(2825.786 1695.357)" fill="none" stroke="currentColor" stroke-linecap="round" stroke-linejoin="round" stroke-width="2"/>
    </g>
  </symbol>
  <symbol xmlns="http://www.w3.org/2000/svg" viewBox="0 0 29.507 22" fill="currentColor" id="campaigns-i">
    <g transform="translate(-1769.531 -1370.503)">
      <path d="M1772.412,1381.5a.576.576,0,0,0-.576-.577h-1.729a.576.576,0,0,0,0,1.153h1.729a.576.576,0,0,0,.576-.576Zm0,0"></path>
      <path d="M1775.87,1384.961a.577.577,0,0,0-.576-.577h-3.458a.576.576,0,0,0,0,1.153h3.458a.576.576,0,0,0,.576-.576Zm0,0"></path>
      <path d="M1775.294,1378.621a.576.576,0,0,0,0-1.153h-3.458a.576.576,0,0,0,0,1.153Zm0,0"></path>
      <path d="M1788.319,1381.5a.576.576,0,1,1-.577-.577.576.576,0,0,1,.577.577Zm0,0"></path>
      <path d="M1798.713,1380.984l-21.439-10.374a.576.576,0,0,0-.8.7l2.376,7.127-3.878,2.585a.577.577,0,0,0,0,.959l3.878,2.585-2.376,7.127a.576.576,0,0,0,.8.7l21.439-10.373a.578.578,0,0,0,0-1.038Zm-22.38.519,2.9-1.931.643,1.931-.643,1.931Zm4.563.576h4.253a.576.576,0,0,0,0-1.153H1780.9l-2.894-8.683,17.946,8.683h-5.612a.576.576,0,0,0,0,1.153h5.612L1778,1390.763Zm0,0"></path>
    </g>
  </symbol>
  <symbol xmlns="http://www.w3.org/2000/svg" viewBox="0 0 8 4.94" id="check-col">
    <path d="M4237.768,4437.5l-3.06,3.053-3.06-3.053-.94.94,4,4,4-4Z" transform="translate(-4230.708 -4437.499)"/>
  </symbol>
  <symbol xmlns="http://www.w3.org/2000/svg" viewBox="0 0 12.351 20" id="contacts-arrow-left">
    <path d="M10981.179,1226l10,10,2.351-2.35-7.634-7.65,7.634-7.65-2.351-2.35Z" transform="translate(-10981.179 -1216)" fill="currentColor"/>
  </symbol>
  <symbol xmlns="http://www.w3.org/2000/svg" viewBox="0 0 12.35 20" id="contacts-arrow-right">
    <path d="M11018.35,1216l-2.35,2.35,7.633,7.65-7.633,7.65,2.35,2.35,10-10Z" transform="translate(-11016 -1216)" fill="currentColor"/>
  </symbol>
  <symbol xmlns="http://www.w3.org/2000/svg" viewBox="0 0 17.719 15.328" fill="currentColor" id="contacts-i">
    <g transform="translate(-1775.641 -1232.35)">
      <path d="M1782.635,1246.455h-5.2a.6.6,0,0,1-.569-.782,4.611,4.611,0,0,1,4.38-3.119,4.471,4.471,0,0,1,2.57.806.6.6,0,1,0,.684-.98,5.7,5.7,0,0,0-1.192-.637,3.04,3.04,0,0,0,.989-2.007,4.5,4.5,0,0,1,5.705-.466.6.6,0,1,0,.683-.98,5.708,5.708,0,0,0-1.192-.637,3.047,3.047,0,1,0-4.1-.006c-.083.032-.166.066-.248.1a5.73,5.73,0,0,0-1.053.6,3.048,3.048,0,1,0-4.89,3.379,5.745,5.745,0,0,0-3.47,3.576,1.793,1.793,0,0,0,1.707,2.342h5.2a.6.6,0,1,0,0-1.2Zm4.811-12.909a1.852,1.852,0,1,1-1.853,1.852A1.854,1.854,0,0,1,1787.446,1233.546Zm-6.186,4.09a1.852,1.852,0,1,1-1.852,1.852A1.855,1.855,0,0,1,1781.26,1237.636Z"></path>
      <path d="M1793.11,1242.112a.6.6,0,0,0-.834.138l-2.946,4.115a.34.34,0,0,1-.235.117.332.332,0,0,1-.256-.092l-1.907-1.831a.6.6,0,0,0-.828.862l1.909,1.833a1.537,1.537,0,0,0,1.06.424l.1,0a1.545,1.545,0,0,0,1.1-.571l.02-.027,2.958-4.131A.6.6,0,0,0,1793.11,1242.112Z"></path>
    </g>
  </symbol>
  <symbol xmlns="http://www.w3.org/2000/svg" viewBox="0 0 8 8" id="cross">
    <path d="M10809.714,1741.473l-.8-.806-3.2,3.194-3.194-3.194-.806.806,3.2,3.194-3.2,3.194.806.806,3.194-3.194,3.2,3.194.8-.806-3.194-3.194Z" transform="translate(-10801.714 -1740.667)" fill="currentColor"></path>
  </symbol>
  <symbol xmlns="http://www.w3.org/2000/svg" viewBox="0 0 13.545 8" id="dropdown-arrow">
    <g transform="translate(-2864.918 -1094)">
      <path d="M2878.246,1094.669l-.443-.447a.744.744,0,0,0-1.048,0l-5.061,5.061-5.067-5.067a.744.744,0,0,0-1.048,0l-.444.444a.742.742,0,0,0,0,1.048l6.033,6.054a.754.754,0,0,0,.525.238h0a.753.753,0,0,0,.523-.238l6.027-6.038a.75.75,0,0,0,0-1.055Z" fill="currentColor"/>
    </g>
  </symbol>
  <symbol xmlns="http://www.w3.org/2000/svg" viewBox="0 0 66.712 50" id="dropzone-cloud-i">
    <g id="Group_288" data-name="Group 288" transform="translate(0 -64.129)">
      <g id="Group_279" data-name="Group 279">
        <g id="Group_278" data-name="Group 278">
          <path id="Path_111" data-name="Path 111" d="M55.812,78.752c-.131,0-.262,0-.4.007a13.116,13.116,0,0,0-4.378-5.79A12.947,12.947,0,0,0,39.9,70.849a15.575,15.575,0,0,0-22.215-3.562,15.756,15.756,0,0,0-5.318,7.3,12.989,12.989,0,0,0,.624,25.963h4.7a.977.977,0,1,0,0-1.954h-4.7a11.035,11.035,0,0,1-.021-22.069c.034,0,.068,0,.1,0h.008a.976.976,0,0,0,.936-.7,13.766,13.766,0,0,1,4.849-6.99,13.624,13.624,0,0,1,19.79,3.669.976.976,0,0,0,1.138.409,11.013,11.013,0,0,1,14.016,7.159.977.977,0,0,0,1.037.68A8.944,8.944,0,1,1,55.812,98.6H49.023a.977.977,0,0,0,0,1.954h6.789a10.9,10.9,0,1,0,0-21.8Z" fill="currentColor"/>
        </g>
      </g>
      <g id="Group_281" data-name="Group 281">
        <g id="Group_280" data-name="Group 280">
          <path id="Path_112" data-name="Path 112" d="M44.924,87.826l-6.087-6.088a3.05,3.05,0,0,0-2.169-.9H22.911a2.024,2.024,0,0,0-2.022,2.022v29.245a2.024,2.024,0,0,0,2.022,2.022H43.8a2.024,2.024,0,0,0,2.021-2.022V89.994A3.046,3.046,0,0,0,44.924,87.826Zm-1.056,24.281a.068.068,0,0,1-.067.068H22.911a.067.067,0,0,1-.067-.068V82.862a.067.067,0,0,1,.067-.067h12.6v6.334a2.024,2.024,0,0,0,2.022,2.022h3.133a.978.978,0,0,0,0-1.955H37.534a.067.067,0,0,1-.067-.067v-6l6.075,6.075a1.1,1.1,0,0,1,.326.786Z" fill="currentColor" opacity="0.6"/>
        </g>
      </g>
      <g id="Group_283" data-name="Group 283">
        <g id="Group_282" data-name="Group 282">
          <path id="Path_113" data-name="Path 113" d="M38.3,100.008l-4.178-5.223a.978.978,0,0,0-1.526,0l-4.178,5.223a.977.977,0,0,0,1.526,1.221l2.438-3.047v8.7a.977.977,0,0,0,1.954,0v-8.7l2.438,3.047a.977.977,0,0,0,1.526-1.221Z" fill="currentColor"/>
        </g>
      </g>
      <g id="Group_285" data-name="Group 285">
        <g id="Group_284" data-name="Group 284">
          <path id="Path_114" data-name="Path 114" d="M36.228,72.876a11.412,11.412,0,0,0-6.855-4.341.978.978,0,1,0-.389,1.916,9.454,9.454,0,0,1,5.681,3.6.977.977,0,1,0,1.563-1.174Z" fill="currentColor"/>
        </g>
      </g>
      <g id="Group_287" data-name="Group 287">
        <g id="Group_286" data-name="Group 286">
          <path id="Path_115" data-name="Path 115" d="M51.072,79.272a8.8,8.8,0,0,0-4.858-4.2.977.977,0,1,0-.651,1.842,6.85,6.85,0,0,1,3.781,3.268.977.977,0,1,0,1.728-.913Z" fill="currentColor"/>
        </g>
      </g>
    </g>
  </symbol>
  <symbol xmlns="http://www.w3.org/2000/svg" viewBox="0 0 5.8 25" id="empty-dots">
    <g transform="translate(-3077 -1085)">
      <circle cx="2.4" cy="2.4" r="2.4" transform="translate(3077.5 1085.5)" stroke="currentColor" stroke-miterlimit="10" stroke-width="1"/>
      <circle cx="2.4" cy="2.4" r="2.4" transform="translate(3077.5 1095.1)" stroke="currentColor" stroke-miterlimit="10" stroke-width="1"/>
      <circle cx="2.4" cy="2.4" r="2.4" transform="translate(3077.5 1104.7)" stroke="currentColor" stroke-miterlimit="10" stroke-width="1"/>
    </g>
  </symbol>
  <symbol xmlns="http://www.w3.org/2000/svg" viewBox="0 0 20.187 22" id="filter">
    <g transform="translate(-7837.407 -1262.014)">
      <g>
        <path d="M7857.47,1266.111a1.042,1.042,0,0,0-.92-.552h-2.961a2.971,2.971,0,0,0-5.85,0h-3a2.272,2.272,0,0,0,.373-1.251,2.294,2.294,0,1,0-4.215,1.251h-2.446a1.042,1.042,0,0,0-.865,1.624l7,10.4v5.9a.52.52,0,0,0,.729.478l4.8-2.088a.522.522,0,0,0,.313-.478v-3.817l7-10.4A1.04,1.04,0,0,0,7857.47,1266.111Zm-6.806-1.96a1.932,1.932,0,0,1,1.856,1.408h-3.713A1.932,1.932,0,0,1,7850.664,1264.151Zm-7.847-1.095a1.251,1.251,0,1,1-1.251,1.252A1.253,1.253,0,0,1,7842.817,1263.056Zm6.648,14.081a.53.53,0,0,0-.088.291v3.634l-3.754,1.635v-4.748h1.884a.521.521,0,0,0,0-1.043h-2.127l-5.247-7.8h10.531a.521.521,0,0,0,0-1.043h-11.232l-.982-1.46h18.1Z" fill="currentColor"/>
      </g>
    </g>
    <g transform="translate(-7837.407 -1262.014)">
      <g>
        <path d="M7853.35,1268.214a.521.521,0,1,0,.153.369A.524.524,0,0,0,7853.35,1268.214Z" fill="currentColor"/>
      </g>
    </g>
  </symbol>
  <symbol xmlns="http://www.w3.org/2000/svg" viewBox="0 0 17.894 24" fill="currentColor" id="integrations-i">
    <g transform="translate(-1775.553 -1441.65)">
      <path d="M1792.938,1450.087h-2.344v-2.343a.469.469,0,0,0-.469-.469h-2.812a.469.469,0,0,0-.469.469v2.343h-1.875v-2.343a.469.469,0,0,0-.469-.469h-4.218a.469.469,0,0,0-.469.469v2.343h-3.75a.469.469,0,0,0-.469.469v1.875a.467.467,0,0,0,.143.337l.006.006,6.882,6.424v5.983a.469.469,0,0,0,.729.39l2.812-1.875a.467.467,0,0,0,.209-.39V1459.2l6.883-6.424,0-.006a.467.467,0,0,0,.143-.337v-1.875a.468.468,0,0,0-.468-.469Zm-5.157-1.874h1.875v1.874h-1.875Zm-7.031,0h3.282v1.874h-3.282Zm11.719,2.812v.937h-5.859a.469.469,0,1,0,0,.938h5.139l-6.027,5.625h-2.443l-6.027-5.625h5.139a.469.469,0,1,0,0-.938h-5.86v-.937Zm-7.031,12.03-1.875,1.25v-4.842h1.875Zm0,0"></path>
      <path d="M1788.719,1445.4a.469.469,0,0,0,.469-.469v-2.812a.469.469,0,0,0-.469-.469h-2.813a.469.469,0,0,0-.468.469v2.812a.469.469,0,0,0,.468.469Zm-2.344-2.812h1.875v1.875h-1.875Zm0,0"></path>
      <path d="M1781.688,1445.4a.469.469,0,0,0,.469-.469v-2.812a.469.469,0,0,0-.469-.469h-2.813a.469.469,0,0,0-.469.469v2.812a.469.469,0,0,0,.469.469Zm-2.344-2.812h1.875v1.875h-1.875Zm0,0"></path>
      <path d="M1784.969,1452.431a.469.469,0,1,1-.469-.469.469.469,0,0,1,.469.469Zm0,0"></path>
    </g>
  </symbol>
  <symbol xmlns="http://www.w3.org/2000/svg" viewBox="0 0 39.852 40" id="logo-mobile">
    <g transform="translate(-679.523 -338.668)">
      <path d="M679.524,355.4h2.47v23.271h-2.47Z" fill="#fff"/>
      <path d="M716.9,355.4h2.471v23.271H716.9Z" fill="#fff"/>
      <path d="M681.855,378.668v-2.2h35.539v2.2Z" fill="#fff"/>
      <path d="M719.375,355.4l-19.926,14.331L679.523,355.4l19.926-16.729Z" fill="#fff"/>
      <path d="M706.665,364.518l3.777,3.777L689.8,374.242l8.077-5.719" fill="#fff"/>
    </g>
  </symbol>
  <symbol xmlns="http://www.w3.org/2000/svg" viewBox="0 0 44.834 45" id="logo">
    <path d="M.001 18.821h2.776V45H-.002z" fill="#00f"/>
    <path d="M42.054 18.821h2.78V45h-2.78z" fill="#00f"/>
    <path d="M2.624 45v-2.468h39.981v2.471z" fill="#00f"/>
    <path d="M44.834 18.821L22.416 34.943 0 18.821 22.416 0z" fill="#00f"/>
    <path d="M30.535 29.081l4.249 4.251-23.225 6.691 9.086-6.435" fill="#00f"/>
  </symbol>
  <symbol xmlns="http://www.w3.org/2000/svg" viewBox="0 0 41.62 42" id="mobile-bell">
    <g transform="translate(-745.152 -396.996)">
      <path d="M771.488,433.729A4.266,4.266,0,0,1,767.221,438h0a4.263,4.263,0,0,1-4.251-4.251v.689m18.218-12.146h-28.34m-2.024-9.373v7.217a8.382,8.382,0,0,1-1.437,4.692l-2.834,4.186a2.145,2.145,0,0,0,.505,2.99l.023.016a2.189,2.189,0,0,0,1.187.393H783.64a2.151,2.151,0,0,0,2.132-2.172h0a2.13,2.13,0,0,0-.4-1.227l-2.729-4.162a8.584,8.584,0,0,1-1.443-4.759V412.9A14.9,14.9,0,0,0,766.29,398h-.548a14.92,14.92,0,0,0-14.92,14.911Z" fill="none" stroke="#fff" stroke-linecap="round" stroke-linejoin="round" stroke-width="2"/>
    </g>
  </symbol>
  <symbol xmlns="http://www.w3.org/2000/svg" viewBox="0 0 24.354 40" id="mobile-bulb">
    <g transform="translate(-755.228 -411.26)">
      <path d="M761.313,411.26h12.174V413h-1.734s.083,13.733.083,14.744a12.174,12.174,0,1,1-8.818-.017c0-2.295.039-14.727.039-14.727h-1.734Z" fill="#fff" fill-rule="evenodd"/>
      <path d="M764.792,414.739h5.217s-.045,13.311-.045,14.231a10.431,10.431,0,1,1-5.2.017C764.764,426.1,764.792,414.739,764.792,414.739Z" fill="blue" fill-rule="evenodd"/>
      <path d="M776.009,439.324a8.609,8.609,0,0,1-17.217,0C765.721,439.324,776.009,429.526,776.009,439.324Z" fill="#fff" fill-rule="evenodd"/>
      <path d="M773.921,438.217a1.305,1.305,0,1,1-1.3,1.307h0a1.3,1.3,0,0,1,1.3-1.306Z" fill="blue" fill-rule="evenodd"/>
      <path d="M772.183,441.7a1.306,1.306,0,1,1-1.3,1.307h0a1.305,1.305,0,0,1,1.3-1.306Z" fill="blue" fill-rule="evenodd"/>
    </g>
  </symbol>
  <symbol xmlns="http://www.w3.org/2000/svg" viewBox="0 0 42.182 42.414" id="mobile-search">
    <g transform="translate(-670.628 -395.738)">
      <circle cx="14.247" cy="14.247" r="14.247" transform="translate(671.628 396.738)" fill="none" stroke="#fff" stroke-miterlimit="10" stroke-width="2"/>
      <line x2="14.613" y2="14.613" transform="translate(696.784 422.126)" fill="none" stroke="#fff" stroke-linecap="round" stroke-miterlimit="10" stroke-width="2"/>
    </g>
  </symbol>
  <symbol xmlns="http://www.w3.org/2000/svg" viewBox="0 0 42 42" id="mobile-user">
    <g transform="translate(-177 -506)">
      <g transform="translate(-2847.5 -568)">
        <circle cx="20" cy="20" r="20" transform="translate(3025.5 1075)" fill="none" stroke="#fff" stroke-miterlimit="10" stroke-width="2"/>
      </g>
      <text transform="translate(197.5 533.478)" fill="#fff" font-size="18" font-family="ProximaNova-Regular, Proxima Nova"><tspan x="-5.661" y="0">B</tspan></text>
    </g>
  </symbol>
  <symbol xmlns="http://www.w3.org/2000/svg" viewBox="0 0 5.8 25" fill="#00eba8" id="more-dots">
    <g transform="translate(-3045.538 -1649.326)">
      <circle cx="2.4" cy="2.4" r="2.4" transform="translate(3046.038 1649.826)" fill="currentColor" stroke="currentColor" stroke-miterlimit="10" stroke-width="1"/>
      <circle cx="2.4" cy="2.4" r="2.4" transform="translate(3046.038 1659.426)" fill="currentColor" stroke="currentColor" stroke-miterlimit="10" stroke-width="1"/>
      <circle cx="2.4" cy="2.4" r="2.4" transform="translate(3046.038 1669.026)" fill="currentColor" stroke="currentColor" stroke-miterlimit="10" stroke-width="1"/>
    </g>
  </symbol>
  <symbol xmlns="http://www.w3.org/2000/svg" viewBox="0 0 2 10" id="more-dots-small">
    <circle cx="1" cy="1" r="1"/>
    <circle cx="1" cy="1" r="1" transform="translate(0 4)"/>
    <circle cx="1" cy="1" r="1" transform="translate(0 8)"/>
  </symbol>
  <symbol xmlns="http://www.w3.org/2000/svg" viewBox="0 0 19.955 20.061" fill="#00eba8" id="search">
    <g transform="translate(-2704.75 -1088.25)">
      <circle cx="6.5" cy="6.5" r="6.5" transform="translate(2705.5 1089)" fill="none" stroke="blue" stroke-miterlimit="10" stroke-width="1.5"/>
      <line x2="6.667" y2="6.667" transform="translate(2716.977 1100.583)" fill="none" stroke="blue" stroke-linecap="round" stroke-miterlimit="10" stroke-width="1.5"/>
    </g>
  </symbol>
  <symbol xmlns="http://www.w3.org/2000/svg" viewBox="0 0 21.515 18.91" fill="currentColor" id="settings-i">
    <g transform="translate(-1773.743 -1516.196)">
      <g>
        <path d="M1788.165,1529.643a1.681,1.681,0,1,0,1.681-1.681,1.683,1.683,0,0,0-1.681,1.681Zm2.522,0a.841.841,0,1,1-.841-.841.842.842,0,0,1,.841.841Zm0,0"></path>
        <path d="M1773.8,1528.446l1.261,2.183a.419.419,0,0,0,.572.155l1.5-.859a7.318,7.318,0,0,0,3.288,1.816v1.684a.421.421,0,0,0,.421.42h2.521a.42.42,0,0,0,.42-.42v-1.683a8.308,8.308,0,0,0,.821-.248l1.139,1.972a.42.42,0,0,0,.574.154l1.048-.606a4.141,4.141,0,0,0,.788.463v1.208a.421.421,0,0,0,.421.421h2.521a.421.421,0,0,0,.42-.421v-1.207a4.228,4.228,0,0,0,.806-.464l1.049.606a.42.42,0,0,0,.574-.155l1.255-2.183a.421.421,0,0,0-.153-.573l-1.031-.6a3.67,3.67,0,0,0,0-.937l1.031-.6a.421.421,0,0,0,.153-.573l-1.255-2.184a.42.42,0,0,0-.574-.154l-1.049.606a4.126,4.126,0,0,0-.806-.464V1524.6a.42.42,0,0,0-.42-.42h-2.108a10.3,10.3,0,0,0-.214-1.152l1.489-.859a.421.421,0,0,0,.153-.574l-1.26-2.184a.42.42,0,0,0-.574-.153l-1.486.857a7.359,7.359,0,0,0-3.312-1.815v-1.684a.42.42,0,0,0-.42-.42h-2.521a.421.421,0,0,0-.421.42v1.684a7.309,7.309,0,0,0-3.288,1.816l-1.5-.859a.42.42,0,0,0-.572.154l-1.261,2.184a.421.421,0,0,0,.156.575l1.5.858a7.431,7.431,0,0,0,0,3.985l-1.5.858a.421.421,0,0,0-.156.575Zm17.158-1.957a3.361,3.361,0,0,1,1.057.609.421.421,0,0,0,.483.044l.931-.538.837,1.456-.917.531a.422.422,0,0,0-.2.441,3,3,0,0,1,0,1.222.42.42,0,0,0,.2.44l.917.532-.837,1.455-.931-.537a.418.418,0,0,0-.483.044,3.361,3.361,0,0,1-1.057.609.418.418,0,0,0-.279.4v1.073H1789v-1.073a.42.42,0,0,0-.279-.4,3.3,3.3,0,0,1-1.04-.609.418.418,0,0,0-.483-.044l-.932.538-.84-1.456.921-.531a.42.42,0,0,0,.2-.439l-.014-.082v0h0a3.194,3.194,0,0,1-.048-.527,3.278,3.278,0,0,1,.063-.611.422.422,0,0,0-.2-.441l-.921-.532.84-1.455.932.538a.421.421,0,0,0,.483-.044,3.259,3.259,0,0,1,1.04-.609.421.421,0,0,0,.279-.4v-1.073h1.681v1.073a.419.419,0,0,0,.279.4Zm-14.794,1.088a.421.421,0,0,0,.19-.5,6.6,6.6,0,0,1,0-4.117.421.421,0,0,0-.19-.5l-1.425-.814.841-1.456,1.426.815a.421.421,0,0,0,.523-.085,6.366,6.366,0,0,1,3.4-1.878.421.421,0,0,0,.336-.412v-1.6h1.681v1.6a.42.42,0,0,0,.336.412,6.5,6.5,0,0,1,3.425,1.878.422.422,0,0,0,.525.085l1.408-.814.841,1.456-1.41.814a.421.421,0,0,0-.189.5,6.038,6.038,0,0,1,.274,1.638v1.209a4.136,4.136,0,0,0-.788.462l-.885-.511a6.57,6.57,0,0,0,.047-.74,4.545,4.545,0,0,0-2.434-3.9.42.42,0,1,0-.4.739,3.747,3.747,0,0,1,1.993,3.156,5.2,5.2,0,0,1-.122,1.109l-.837,1.45a3.87,3.87,0,0,1-2.612,1.013,3.54,3.54,0,0,1-1.664-6.681.42.42,0,1,0-.419-.728,4.38,4.38,0,0,0,2.083,8.25,4.867,4.867,0,0,0,2.632-.792l.924.534a3.878,3.878,0,0,0-.03.468,3.754,3.754,0,0,0,.023.4,7,7,0,0,1-2.385.949.42.42,0,0,0-.336.411v1.6h-1.681v-1.6a.421.421,0,0,0-.336-.411,6.366,6.366,0,0,1-3.4-1.878.421.421,0,0,0-.523-.086l-1.426.816-.841-1.456Zm0,0"></path>
      </g>
      <path d="M1782.117,1526.7a1.681,1.681,0,1,0-1.68-1.681,1.683,1.683,0,0,0,1.68,1.681Zm0-2.521a.84.84,0,1,1-.84.84.841.841,0,0,1,.84-.84Zm0,0"></path>
      <path d="M1782.483,1521.028a.42.42,0,1,1-.42-.42.421.421,0,0,1,.42.42Zm0,0"></path>
    </g>
  </symbol>
  <symbol xmlns="http://www.w3.org/2000/svg" viewBox="0 0 18 18" fill="currentColor" id="templates-i">
    <defs>
      <clipPath id="clip-path">
        <rect width="18" height="18" fill="none"></rect>
      </clipPath>
    </defs>
    <g transform="translate(-1797.641 -1228.35)">
      <g transform="translate(23.14 -73.342)">
        <path d="M1780.985,1306.923h7.031a.391.391,0,1,0,0-.781h-7.031a.391.391,0,1,0,0,.781Zm0,0" transform="translate(-1 -0.463)"></path>
        <path d="M1780.985,1309.267h7.031a.391.391,0,1,0,0-.781h-7.031a.391.391,0,1,0,0,.781Zm0,0" transform="translate(-1 -0.707)"></path>
        <path d="M1780.985,1311.611h7.031a.391.391,0,0,0,0-.782h-7.031a.391.391,0,0,0,0,.782Zm0,0" transform="translate(-1 -0.951)"></path>
        <g transform="translate(1774.5 1301.692)">
          <g clip-path="url(#clip-path)">
            <path d="M1784.813,1321.259a.351.351,0,1,1-.352-.351.352.352,0,0,1,.352.351Zm0,0" transform="translate(-1775.461 -1303.614)"></path>
            <path d="M1775.555,1319.689h6.364a.351.351,0,0,0,0-.7h-6.364a.352.352,0,0,1-.351-.352v-8.661c.787.671,4.162,3.551,4.369,3.725l-1.594,1.593a.352.352,0,0,0,.5.5l1.634-1.633,2.7,2.3a1.058,1.058,0,0,0,1.385,0l2.682-2.286,1.652,1.621a.351.351,0,1,0,.492-.5l-1.607-1.578,4.385-3.739v8.661a.352.352,0,0,1-.351.352h-6.364a.351.351,0,0,0,0,.7h6.364a1.056,1.056,0,0,0,1.054-1.055v-9.422a.359.359,0,0,0-.128-.272h0l-3.247-2.663v-2.338a.351.351,0,0,0-.351-.352h-2.73l-1.849-1.635a1.059,1.059,0,0,0-1.391,0l-1.848,1.634h-2.73a.352.352,0,0,0-.352.352v2.338l-3.246,2.663h0a.36.36,0,0,0-.129.269v0h0v9.422a1.056,1.056,0,0,0,1.055,1.055Zm16.046-10.471-2.476,2.11v-4.141Zm-8.332-6.737a.351.351,0,0,1,.462,0l1.253,1.108h-2.965Zm5.153,1.809v7.637l-4.686,4,0,0a.354.354,0,0,1-.464,0l0,0-4.686-4v-7.637Zm-10.547,2.9v4.141l-2.475-2.11Zm0,0" transform="translate(-1774.5 -1301.692)"></path>
          </g>
        </g>
      </g>
    </g>
  </symbol>
  <symbol xmlns="http://www.w3.org/2000/svg" viewBox="0 0 17.587 20" id="shopify">
    <g transform="translate(-505.749 -133.884)">
      <path d="M496.381,161.857a.175.175,0,0,0-.176-.153c-.07,0-1.6-.116-1.6-.116s-1.066-1.067-1.2-1.172a.5.5,0,0,0-.434-.059c-.011,0-.234.071-.6.188-.364-1.043-.985-1.993-2.1-1.993h-.1a1.364,1.364,0,0,0-1.031-.585c-2.578,0-3.82,3.222-4.208,4.862-1.008.317-1.722.528-1.8.563-.563.175-.574.187-.645.714-.058.4-1.523,11.729-1.523,11.729l11.4,2.132,6.186-1.335C498.56,176.609,496.392,161.962,496.381,161.857Zm-6.294-.715v.117c-.633.2-1.3.4-1.993.621a3.5,3.5,0,0,1,1.734-2.472A4.881,4.881,0,0,1,490.087,161.142Zm-1.006-2.457,0,0a.563.563,0,0,1,.329.117c-.833.387-1.711,1.359-2.074,3.328-.551.175-1.078.328-1.582.492C486.176,161.119,487.23,158.684,489.081,158.684Zm.447,8.716a3.529,3.529,0,0,0-1.489-.364c-1.2,0-1.265.761-1.265.95,0,1.031,2.695,1.429,2.695,3.854a2.859,2.859,0,0,1-2.564,3.127q-.135.013-.271.014a3.907,3.907,0,0,1-2.953-1.218l.528-1.734a3.745,3.745,0,0,0,1.9.891.77.77,0,0,0,.808-.729c0-.015,0-.029,0-.044,0-1.347-2.2-1.4-2.2-3.633a3.682,3.682,0,0,1,3.678-3.685q.183,0,.364.018a3.125,3.125,0,0,1,1.524.292Zm2.345-6.656c-.281.081-.621.187-.961.3v-.211a4.489,4.489,0,0,0-.234-1.558c.586.07.95.714,1.2,1.465Z" transform="translate(24.784 -24.083)" fill="currentColor"/>
    </g>
  </symbol>
  <symbol xmlns="http://www.w3.org/2000/svg" viewBox="0 0 23.25 13.41" id="synched">
    <path d="M18,7,16.59,5.59l-6.34,6.34,1.41,1.41Zm4.24-1.41L11.66,16.17,7.48,12,6.07,13.41,11.66,19l12-12ZM.41,13.41,6,19l1.41-1.41L1.83,12Z" transform="translate(-0.41 -5.59)" fill="currentColor"/>
  </symbol>
  <symbol xmlns="http://www.w3.org/2000/svg" viewBox="0 0 20 20" id="dropbox">
    <path d="M14.116,0,10,3.464l5.933,3.691L20,3.872Z" fill="currentColor"/>
    <path d="M5.884,0,0,3.871,4.069,7.155,10,3.464Z" fill="currentColor"/>
    <path d="M0,10.439l5.884,3.873L10,10.848,4.068,7.155Z" fill="currentColor"/>
    <path d="M15.931,7.155,10,10.848l4.116,3.464L20,10.439Z" fill="currentColor"/>
    <path d="M14.414,15.611a.62.62,0,0,1-.343.1.632.632,0,0,1-.4-.146L10,12.48,6.331,15.568a.626.626,0,0,1-.746.043L3.75,14.4V16.25L10.013,20l6.237-3.75V14.4Z" fill="currentColor"/>
  </symbol>
  <symbol xmlns="http://www.w3.org/2000/svg" viewBox="0 0 17 20" id="magento">
    <path d="M14.75,16.14V6.5L8.5,2.64,2.25,6.5v9.64L0,14.75V5.25L8.5,0,17,5.25v9.5Zm-7.5,1.088L8.5,18l1.25-.772V6.051l2.75,1.7v9.779L8.5,20l-4-2.471V7.75l2.75-1.7Z" fill="currentColor" fill-rule="evenodd"/>
    <path d="M14.75,6.5,8.5,2.64,2.25,6.5v.007L0,5.25,8.5,0,17,5.25,14.75,6.507ZM12.5,7.765,9.75,9.3V6.051l2.75,1.7ZM7.25,9.3,4.5,7.765V7.75l2.75-1.7Z" fill="currentColor" fill-rule="evenodd"/>
  </symbol>
  <symbol xmlns="http://www.w3.org/2000/svg" viewBox="0 0 19.999 20" id="wordpress">
    <g transform="translate(-0.005)">
      <path d="M0,10a10,10,0,0,0,5.636,9L.871,5.93A9.961,9.961,0,0,0,0,10Zm16.75-.505a5.264,5.264,0,0,0-.824-2.757,4.686,4.686,0,0,1-.982-2.346,1.731,1.731,0,0,1,1.679-1.775c.044,0,.087.006.129.009A10,10,0,0,0,1.65,4.507c.235.008.456.012.643.012,1.046,0,2.666-.127,2.666-.127a.413.413,0,0,1,.063.824s-.542.064-1.144.095L7.519,16.143,9.708,9.58,8.15,5.311C7.611,5.28,7.1,5.216,7.1,5.216a.413.413,0,0,1,.064-.824s1.651.127,2.633.127c1.046,0,2.666-.127,2.666-.127a.413.413,0,0,1,.063.824s-.542.064-1.144.095L15,16.06l1-3.332A9.318,9.318,0,0,0,16.755,9.495ZM10.18,10.874l-3,8.719a10.009,10.009,0,0,0,6.146-.16.857.857,0,0,1-.072-.138ZM18.78,5.2a7.652,7.652,0,0,1,.067,1.028,9.43,9.43,0,0,1-.761,3.581l-3.054,8.831A10,10,0,0,0,18.78,5.2Z" fill="currentColor"/>
    </g>
  </symbol>
  <symbol xmlns="http://www.w3.org/2000/svg" viewBox="0 0 20 14.258" id="salesforce">
    <g transform="translate(0 -73.5)">
      <g transform="translate(0 73.5)">
        <path d="M15.312,75.063a4.65,4.65,0,0,0-1.528.255,3.9,3.9,0,0,0-4.857-.674,4.686,4.686,0,0,0-7.755,3.543,4.739,4.739,0,0,0,.11,1.014A3.906,3.906,0,0,0,3.76,86a4.687,4.687,0,0,0,7.409-.112,3.912,3.912,0,0,0,4.066-1.449h.077a4.688,4.688,0,1,0,0-9.375Zm0,8.2c-.1,0-.213,0-.322-.015l-.361-.033-.19.309a2.736,2.736,0,0,1-3.3,1.123l-.456-.173-.253.417a3.517,3.517,0,0,1-5.895.182l-.184-.265-.322.014-.122,0a2.734,2.734,0,0,1-1.615-4.94l.338-.247-.125-.4A3.516,3.516,0,0,1,8.436,75.8l.371.4.425-.339a2.733,2.733,0,0,1,3.9.511l.283.382.432-.2a3.516,3.516,0,1,1,1.461,6.715Z" transform="translate(0 -73.5)" fill="currentColor"/>
      </g>
    </g>
  </symbol>
  <symbol xmlns="http://www.w3.org/2000/svg" viewBox="0 0 19.601 20" id="gmail">
    <g transform="translate(-21.048 -20.5)">
      <path d="M31.047,29.071V32.5h5.671a5.4,5.4,0,0,1-5.671,4.313,6.314,6.314,0,0,1,0-12.625,5.63,5.63,0,0,1,3.985,1.543l2.715-2.614a9.567,9.567,0,0,0-6.7-2.617,10,10,0,1,0,0,20c5.77,0,9.6-4.059,9.6-9.77a9.177,9.177,0,0,0-.156-1.656l-9.445,0Z" fill="currentColor"/>
    </g>
  </symbol>
  <symbol xmlns="http://www.w3.org/2000/svg" viewBox="0 0 17.59 13.41" id="connected">
    <path d="M22.24,5.59,11.66,16.17,7.48,12,6.07,13.41,11.66,19l12-12Z" transform="translate(-6.07 -5.59)" fill="currentColor"/>
  </symbol>
  <symbol xmlns="http://www.w3.org/2000/svg" viewBox="0 0 20 15.022" id="freshbooks">
    <g transform="translate(-185.218 -41.024)">
      <path d="M187.777,52.449a24.667,24.667,0,0,0-2,2.6c-.331.485-.555.44-.555.44s.1.741,1.187.519a16.438,16.438,0,0,1,1.867-3.251A1.791,1.791,0,0,0,187.777,52.449Z" fill="currentColor"/>
      <path d="M188.227,51.973l.445.319C188.523,52.181,188.375,52.068,188.227,51.973Z" fill="currentColor"/>
      <path d="M187.534,53.152s.719-9.991,8.816-9.733c6.71.214,8.868-2.4,8.868-2.4S205.289,55.222,187.534,53.152Zm8.038-5.386a10.663,10.663,0,0,0,6.73-3.423,13.146,13.146,0,0,1-6.485,2.387c-3.958.394-7.306,5.456-7.306,5.456S191.88,48.135,195.572,47.766Z" fill="currentColor"/>
    </g>
  </symbol>
  <symbol xmlns="http://www.w3.org/2000/svg" viewBox="0 0 19.636 20" id="insightly">
    <g transform="translate(-130.808 -123.497)">
      <path id="Path_141" d="M133.9,128.5c-.835,0-1.7-.334-1.7-2.364a2.762,2.762,0,0,1,2.726-2.643c.946,0,1.752.445,1.752,1.558A3.17,3.17,0,0,1,133.9,128.5m15.065,14.209a3.424,3.424,0,0,1-2.353.784c-2.337,0-3.616-1.585-3.616-4.2,0-1.474.445-3.476.445-4.784,0-.751-.167-1.28-.668-1.28-1.168,0-2.2,3.589-2.2,8.206,0,.779-.529,2.031-3.255,2.031-.417,0-.612-.334-.639-.918a3.352,3.352,0,0,1-2.2.807c-2.726,0-3.672-2.142-3.672-4.812,0-2.309.278-6.315.723-7.233a4,4,0,0,1,2.782-2,1.066,1.066,0,0,1,1.057,1.168,53.913,53.913,0,0,0-.667,6.147c0,3,.333,3.895,1,3.895s.834-.863,1.2-1.363c.055-.584.083-1.169.111-1.781.028-4.756.111-5.257.306-5.925.251-1.363,2.365-2.281,3.282-2.281a.9.9,0,0,1,.974,1.03c0,.612-.418,1.446-.584,2.642.667-1.5,2.42-3.421,4.033-3.421,1.808,0,2.281,1.363,2.281,3.06,0,1.835-.473,3.643-.473,5.646,0,1.53.313,2.634.786,2.829a2.281,2.281,0,0,0,.519.019c.279-.024.571-.482.675-.666a2.938,2.938,0,0,1,.449-.756c.269-.292.439-.24.51-.24a.71.71,0,0,1,.618.505c.189.467-.137,1.067-.316,1.412A6.961,6.961,0,0,1,148.961,142.713Z" fill="currentColor"/>
    </g>
  </symbol>
  <symbol xmlns="http://www.w3.org/2000/svg" viewBox="0 0 20 11.815" id="yahoo">
    <g transform="translate(-19.568 -116.326)">
      <path d="M28.139,117.5l.125-1.173h-8.7V117.5l2.589.183,5,5.983v3.147L24.317,127v1.047h8.635V127l-2.837-.124.123-3.269,4.748-4.256,2.531-.245v-1.3l-7.279.063v1.171l2.714.063-3.515,3.021L25.8,117.682Z" fill="currentColor"/>
      <path d="M39.568,120.806l-2.292-.1-.1,5.458,1.076.1,1.321-5.457Zm-2.538,7.335h1.322v-1.114l-1.426-.105.1,1.219Z" fill="currentColor"/>
    </g>
  </symbol>
  <symbol xmlns="http://www.w3.org/2000/svg" viewBox="0 0 20 16.63" id="highrise">
    <path d="M96.187,311.248c7.07,0,9.67,12.564,9.67,12.564s-2.271,4.066-9.78,4.066-10.22-4.066-10.22-4.066S89.117,311.248,96.187,311.248Zm-5.934,10.11s-2.454.4-2.894,1.758,5.092,3.406,8.168,3.406,8.864-1.172,8.864-3.26c0,0,0-1.172-2.857-1.9v-4.249l-1.941-.586-1.209.366-.147-1.758-2.381-.733-2.271.769-.147,2.674-1.282-.952-1.9.879Z" transform="translate(-85.857 -311.248)" fill="currentColor"/>
  </symbol>
  <symbol xmlns="http://www.w3.org/2000/svg" viewBox="0 0 20.001 20" id="freshsales">
    <path d="M232.523,11.55h-7.558a10,10,0,0,0,.055,20h.055a9.967,9.967,0,0,0,9.972-9.972v-7.5A2.506,2.506,0,0,0,232.523,11.55Zm-7.373,5a1.991,1.991,0,1,1-1.991,1.991A1.982,1.982,0,0,1,225.15,16.545Zm.756,8.092v1.935h-1.7V24.638l-3.465-3.465h8.627Z" transform="translate(-215.048 -11.55)" fill="currentColor"/>
  </symbol>
  <symbol xmlns="http://www.w3.org/2000/svg" viewBox="0 0 20 20" id="outlook">
    <g transform="translate(-470.957 -85.693)">
      <path d="M482.924,92.09a2.981,2.981,0,0,0-1.908-.59,3.116,3.116,0,0,0-1.847.547,3.429,3.429,0,0,0-1.18,1.505,5.968,5.968,0,0,0-.009,4.3h0a3.393,3.393,0,0,0,1.155,1.493,3.019,3.019,0,0,0,1.8.544,3.168,3.168,0,0,0,1.926-.56,3.265,3.265,0,0,0,1.122-1.5,5.776,5.776,0,0,0,.358-2.082,6.318,6.318,0,0,0-.337-2.108A3.343,3.343,0,0,0,482.924,92.09Z" fill="currentColor"/>
      <path d="M489.291,85.693H472.624a1.675,1.675,0,0,0-1.667,1.666v16.668a1.675,1.675,0,0,0,1.667,1.666h16.667a1.674,1.674,0,0,0,1.666-1.666V87.359A1.674,1.674,0,0,0,489.291,85.693ZM486.1,98.9a5.305,5.305,0,0,1-2.057,2.243,5.994,5.994,0,0,1-3.131.8,5.9,5.9,0,0,1-3.085-.784,5.252,5.252,0,0,1-2.023-2.17,6.819,6.819,0,0,1-.707-3.149,7.561,7.561,0,0,1,.7-3.313h0a5.23,5.23,0,0,1,2.053-2.267,6.206,6.206,0,0,1,3.263-.818,5.769,5.769,0,0,1,3.017.775,5.172,5.172,0,0,1,2,2.167,7,7,0,0,1,.7,3.186A7.375,7.375,0,0,1,486.1,98.9Z" fill="currentColor"/>
    </g>
  </symbol>
  <symbol xmlns="http://www.w3.org/2000/svg" viewBox="0 0 17.88 13.41" id="off">
    <path d="M14.416,8.5A5.575,5.575,0,0,0,5.953,4.872L7.04,5.959a4.094,4.094,0,0,1,6,3.628V9.96h1.118a2.229,2.229,0,0,1,1.073,4.187l1.08,1.08A3.706,3.706,0,0,0,14.416,8.5ZM2.235,4.946,4.284,6.987A4.468,4.468,0,0,0,4.47,15.92h8.739l1.49,1.49.946-.946L3.181,4ZM5.759,8.47l5.96,5.96H4.47a2.98,2.98,0,1,1,0-5.96Z" transform="translate(0 -4)" fill="currentColor"/>
  </symbol>
  <symbol xmlns="http://www.w3.org/2000/svg" viewBox="0 0 20 20" id="missing">
    <g transform="translate(-0.001 -210.4)">
      <path d="M19.725,215a.94.94,0,0,0-1.329,0l-2.113,2.114-3-3L15.4,212a.94.94,0,1,0-1.329-1.329l-2.114,2.113-1.69-1.69a.94.94,0,0,0-1.329,0L5.2,214.836a7.136,7.136,0,0,0-.488,9.536.806.806,0,0,0-.089.077L.276,228.795a.94.94,0,1,0,1.329,1.329l4.346-4.346a.926.926,0,0,0,.077-.089,7.137,7.137,0,0,0,9.536-.488l3.737-3.738a.939.939,0,0,0,0-1.328l-1.689-1.69,2.113-2.114A.94.94,0,0,0,19.725,215Zm-5.48,5.937a.625.625,0,0,1-.886,0l-3.9-3.9a.626.626,0,0,1,.886-.886l3.9,3.9A.626.626,0,0,1,14.245,220.939Z" fill="currentColor"/>
    </g>
  </symbol>
  <symbol xmlns="http://www.w3.org/2000/svg" viewBox="0 0 87.062 75" id="cat-laptop">
    <g>
      <path d="M19.271,53.5V52.142a.851.851,0,1,0-1.7,0V53.5a.851.851,0,0,0,1.7,0Z" transform="translate(9.052 -27.042)" fill="#454f5b"/>
      <path d="M15.811,57.97a17.822,17.822,0,0,0-4.336,2.1.85.85,0,1,0,1.009,1.368,16.437,16.437,0,0,1,3.763-1.826.85.85,0,1,0-.436-1.644Z" transform="translate(6.178 -23.344)" fill="#454f5b"/>
      <path d="M41.252,61.11a4.134,4.134,0,1,0,4.135,4.134A4.138,4.138,0,0,0,41.252,61.11Zm0,6.568a2.434,2.434,0,1,1,2.434-2.434A2.437,2.437,0,0,1,41.252,67.678Z" transform="translate(21.644 -20.108)" fill="#454f5b"/>
      <path d="M35.636,53.5V52.142a.851.851,0,1,0-1.7,0V53.5a.851.851,0,0,0,1.7,0Z" transform="translate(17.482 -27.042)" fill="#454f5b"/>
      <path d="M82.565,64.793h-11.8a23.7,23.7,0,0,0-1.87-7.83,20.924,20.924,0,0,0,2.638-17.78,5.053,5.053,0,0,0-4.249-3.565,20.97,20.97,0,0,0-16.559,5.228,39.471,39.471,0,0,0-26.1,0A20.965,20.965,0,0,0,8.065,35.617a5.049,5.049,0,0,0-4.248,3.565A20.923,20.923,0,0,0,6.451,56.958a23.651,23.651,0,0,0-1.919,9.324A18.52,18.52,0,0,0,11.99,81.623a1.275,1.275,0,0,0,1.563-2.016,16.081,16.081,0,0,1-6.47-13.325c0-13.844,13.722-25.106,30.59-25.106a36.15,36.15,0,0,1,12.774,2.285,1.256,1.256,0,0,0,.237.088A31.848,31.848,0,0,1,57.689,47.3l.029.021c.544.39,1.077.8,1.591,1.219a25.215,25.215,0,0,1,6.925,8.729,1.131,1.131,0,0,0,.076.168,21.231,21.231,0,0,1,1.9,7.353H42.338A5.58,5.58,0,0,0,44.1,63.444a1.275,1.275,0,1,0-1.923-1.675,3.013,3.013,0,0,1-4.548,0,1.275,1.275,0,1,0-1.923,1.675A5.567,5.567,0,0,0,39.125,65.3a4.5,4.5,0,0,0-2.429,3.99V82.911a13.461,13.461,0,0,0-6.67-1.8,15.868,15.868,0,0,0-8.63,2.518c-1.021-.34-2-.719-2.924-1.128a1.275,1.275,0,1,0-1.04,2.328c.54.242,1.1.471,1.674.69a9.619,9.619,0,0,0-1.391,1.863,5.342,5.342,0,0,0-.014,5.208A17.57,17.57,0,0,0,17.98,95a3.47,3.47,0,0,0-.294,1.4v2.892a3.444,3.444,0,0,0,.552,1.872,2.687,2.687,0,0,1-2.991-.036c-1.4-.846-1.873-2.305-2.613-5.433-.675-2.854-1.556-6.573-4.6-9.368l-.045-.039a12.437,12.437,0,0,0-2.309-1.656A3.811,3.811,0,1,0,1.948,91.28a4.936,4.936,0,0,1,1.109.828,1.239,1.239,0,0,0,.123.128c.962,1.051,1.415,2.585,2.036,5.212.8,3.393,1.8,7.614,6.092,10.206a10.337,10.337,0,0,0,5.393,1.555,11.945,11.945,0,0,0,6.822-2.349c.382-.266.767-.558,1.156-.874a20.826,20.826,0,0,0,13,4.484H65a5.336,5.336,0,0,0,4.782-7.7h13.8a3.483,3.483,0,0,0,3.477-3.479v-30A4.5,4.5,0,0,0,82.565,64.793ZM14.327,46.645a28.375,28.375,0,0,0-6.534,7.634A18.351,18.351,0,0,1,5.78,41.934a22.149,22.149,0,0,1,9.1,4.263C14.7,46.344,14.51,46.494,14.327,46.645Zm2.685-1.995A24.515,24.515,0,0,0,6.443,39.468a2.5,2.5,0,0,1,1.92-1.317,18.448,18.448,0,0,1,13.581,3.773A34.068,34.068,0,0,0,17.012,44.65ZM4.09,89.639a7.854,7.854,0,0,0-.894-.584,1.261,1.261,0,1,1,1.233-2.2,10.3,10.3,0,0,1,1.182.771A6.741,6.741,0,0,1,4.09,89.639ZM58.333,44.65A34.276,34.276,0,0,0,53.4,41.923a18.451,18.451,0,0,1,13.583-3.773,2.5,2.5,0,0,1,1.92,1.317A24.527,24.527,0,0,0,58.333,44.65Zm9.221,9.63a28.411,28.411,0,0,0-6.624-7.709c-.155-.126-.311-.251-.467-.373a22.148,22.148,0,0,1,9.1-4.265A18.355,18.355,0,0,1,67.553,54.28ZM19.94,88.635c1.6-2.85,5.856-4.973,9.935-4.973H30a10.812,10.812,0,0,1,6.7,2.328v6.93H35.273a2.714,2.714,0,0,1-.434-.6,5.286,5.286,0,0,0-4.615-3.087,6.926,6.926,0,0,0-5.375,2.037,1.056,1.056,0,0,0-.064.1,2.784,2.784,0,0,1-4.758.135l-.017-.027a2.8,2.8,0,0,1-.324-.733A2.763,2.763,0,0,1,19.94,88.635Zm12.273,4.285H26.824c.037-.057.076-.112.113-.171a5.038,5.038,0,0,1,3.15-.966A2.593,2.593,0,0,1,32.213,92.921ZM22.066,104.765a9.458,9.458,0,0,1-5.369,1.895,7.813,7.813,0,0,1-4.073-1.189c-3.375-2.037-4.164-5.377-4.928-8.608a17.144,17.144,0,0,0-1.877-5.351A9.289,9.289,0,0,0,7.484,89.5a17.549,17.549,0,0,1,2.667,6.779c.7,2.973,1.31,5.54,3.777,7.031,1.328.8,3.462,1.608,6.663-.594a3.417,3.417,0,0,0,.571.051h.332a19.017,19.017,0,0,0,1.277,1.475C22.534,104.427,22.3,104.6,22.066,104.765Zm-.9-4.546h0a.928.928,0,0,1-.927-.927V96.4a.911.911,0,0,1,.147-.5l.012-.021a.924.924,0,0,1,.768-.409H36.7v4.747Zm30.377,7.7H37.673a18.19,18.19,0,0,1-12.125-4.53l-.033-.031q-.32-.286-.621-.587H53a2.781,2.781,0,0,1-1.461,5.148Zm13.46,0H56.087a5.341,5.341,0,0,0,.234-5.148H66.46A2.781,2.781,0,0,1,65,107.918Zm19.512-15H81.166a1.275,1.275,0,0,0,0,2.55h3.345v3.82a.929.929,0,0,1-.928.927H39.248V95.471H75.235a1.275,1.275,0,0,0,0-2.55H39.248V69.288a1.945,1.945,0,0,1,1.944-1.944H82.565a1.947,1.947,0,0,1,1.946,1.944V92.921Z" transform="translate(0.001 -35.469)" fill="#454f5b"/>
      <path d="M15.359,55.083a17.768,17.768,0,0,0-4.81.291.85.85,0,0,0,.206,1.675.821.821,0,0,0,.207-.026,16.4,16.4,0,0,1,4.175-.254.85.85,0,0,0,.222-1.686Z" transform="translate(5.546 -25.279)" fill="#454f5b"/>
    </g>
  </symbol>
  <symbol xmlns="http://www.w3.org/2000/svg" viewBox="0 0 102.381 50" id="cat-two">
    <g transform="translate(-18.527 0.001)">
      <path d="M35.027,19.37a15.429,15.429,0,0,0-3.755,1.82.732.732,0,1,0,.87,1.178A14.272,14.272,0,0,1,35.4,20.786a.733.733,0,1,0-.376-1.416Z" fill="#454f5b"/>
      <path d="M37.286,12.954a2.307,2.307,0,0,0-2.3,2.3.733.733,0,0,0,1.465,0,.839.839,0,1,1,1.677,0,.733.733,0,0,0,1.465,0A2.306,2.306,0,0,0,37.286,12.954Z" fill="#454f5b"/>
      <path d="M34.442,18.322a.733.733,0,0,0,.192-1.453,15.439,15.439,0,0,0-4.164.252.732.732,0,1,0,.355,1.421A14.218,14.218,0,0,1,34.442,18.322Z" fill="#454f5b"/>
      <path d="M64.265,20.394a3.075,3.075,0,0,0-.891-.782,12.681,12.681,0,0,0,.13-1.826A13.65,13.65,0,0,0,62.4,12.4,12.076,12.076,0,0,0,63.918,2.14,2.911,2.911,0,0,0,61.468.085,12.1,12.1,0,0,0,51.909,3.1a22.793,22.793,0,0,0-15.073,0A12.1,12.1,0,0,0,27.277.085,2.912,2.912,0,0,0,24.828,2.14,12.072,12.072,0,0,0,26.35,12.4a13.633,13.633,0,0,0-1.109,5.384c0,5.132,2.909,8.967,8.282,11.059q-.094.243-.176.489a8.561,8.561,0,0,1-6.114-2.647,3.076,3.076,0,1,0-5.061,3.5,13.174,13.174,0,0,0,6.319,4.447,14.015,14.015,0,0,0,4.689.852h.1a10.321,10.321,0,0,0,.738,1.785,2.8,2.8,0,0,1-1.609-.208c-3.895-1.484-7.5-1.9-10.3-1.242a.691.691,0,0,0-.111.027,8.347,8.347,0,0,0-2.433,1,2.2,2.2,0,1,0,2.329,3.725c1.728-1.08,5.159-.853,8.953.592a7.768,7.768,0,0,0,2.759.545,6.3,6.3,0,0,0,1.617-.212,8.317,8.317,0,0,0,1.289,7.1,3.075,3.075,0,0,0,5.167-3.337c-.75-1.16-.749-1.711-.433-2.363a12.262,12.262,0,0,0,3.133.4,12.077,12.077,0,0,0,6.232-1.71l.036.04a3.377,3.377,0,0,1,.667,3.039,3.075,3.075,0,1,0,5.8,2.05c.04-.114.079-.232.114-.349a.732.732,0,1,0-1.4-.424c-.029.095-.06.191-.093.285a1.611,1.611,0,1,1-3.037-1.074,4.824,4.824,0,0,0-.875-4.4A11.137,11.137,0,0,0,54.04,38.4c.048.052.1.1.143.158A8.138,8.138,0,0,1,56.066,42.9a.732.732,0,0,0,.727.646.63.63,0,0,0,.086,0,.732.732,0,0,0,.642-.813A9.62,9.62,0,0,0,55.29,37.6c-.151-.174-.309-.34-.472-.5a10.144,10.144,0,0,0,1.054-3.673,19.112,19.112,0,0,0,5.372-3.794,12.293,12.293,0,0,0,3.639-6.965A3.053,3.053,0,0,0,64.265,20.394ZM32.944,34.013a12.921,12.921,0,0,1-3.964-.763,11.683,11.683,0,0,1-5.6-3.9,1.611,1.611,0,0,1,2.65-1.832c1.078,1.561,4.214,3.181,6.952,3.274a10.161,10.161,0,0,0-.036,3.22ZM61.625,10.864A16.355,16.355,0,0,0,57.85,6.451q-.16-.132-.324-.261a12.8,12.8,0,0,1,5.265-2.467A10.606,10.606,0,0,1,61.625,10.864ZM61.3,1.54a1.445,1.445,0,0,1,1.113.767A14.162,14.162,0,0,0,56.3,5.3a19.671,19.671,0,0,0-2.855-1.578A10.654,10.654,0,0,1,61.3,1.54Zm-33.848,0A10.653,10.653,0,0,1,35.3,3.723,19.777,19.777,0,0,0,32.443,5.3a14.168,14.168,0,0,0-6.108-2.994A1.445,1.445,0,0,1,27.449,1.54ZM25.955,3.723A12.8,12.8,0,0,1,31.22,6.19c-.109.086-.218.173-.324.261a16.377,16.377,0,0,0-3.776,4.413A10.6,10.6,0,0,1,25.955,3.723ZM21.112,39.33a.732.732,0,0,1-.776-1.242,6.752,6.752,0,0,1,1.612-.721,3.138,3.138,0,0,1,.5,1.372A5.4,5.4,0,0,0,21.112,39.33Zm12.488.914a6.312,6.312,0,0,1-2.237-.449,17.123,17.123,0,0,0-7.47-1.328,4.714,4.714,0,0,0-.435-1.413,18.159,18.159,0,0,1,8.426,1.372,4.013,4.013,0,0,0,2.932.128,10.987,10.987,0,0,0,.98,1.167A4.877,4.877,0,0,1,33.6,40.244Zm7.064,7.019a1.611,1.611,0,0,1-2.928.535c-1.924-2.979-1.51-5.246-.693-6.961a11.722,11.722,0,0,0,2.806,1.6c-.45,1.064-.4,2.083.593,3.617A1.6,1.6,0,0,1,40.664,47.263Zm.1-16.809c1.157.107,2.371.162,3.609.162a31.831,31.831,0,0,0,9.465-1.289,8.627,8.627,0,0,1,.609,3.194c0,5.134-4.519,9.31-10.074,9.31S34.3,37.655,34.3,32.521a8.648,8.648,0,0,1,.308-2.293h0a8.779,8.779,0,0,1,.3-.9q1.117.348,2.355.607a.711.711,0,0,0,.151.016.733.733,0,0,0,.148-1.45,22.907,22.907,0,0,1-2.8-.763l-.041-.014a14.043,14.043,0,0,1-5.046-2.892,9.259,9.259,0,0,1-2.97-7.046c0-8,7.925-14.5,17.667-14.5s17.666,6.5,17.666,14.5a11.31,11.31,0,0,1-.088,1.416,3.074,3.074,0,0,0-3.169,2.683c-.294,2.3-2.645,4.678-4.835,5.864a29.621,29.621,0,0,1-9.575,1.4c-1.193,0-2.361-.052-3.473-.155a.732.732,0,1,0-.135,1.458ZM63.43,22.48c-.579,4.529-4.637,7.769-7.545,9.3a10.081,10.081,0,0,0-.708-3.051,13.525,13.525,0,0,0,2.936-2.448,8.04,8.04,0,0,0,2.122-4.211,1.609,1.609,0,0,1,1.8-1.393,1.642,1.642,0,0,1,.3.067l.012,0A1.61,1.61,0,0,1,63.43,22.48Z" fill="#454f5b"/>
      <path d="M64.265,20.394a3.075,3.075,0,0,0-.891-.782,12.681,12.681,0,0,0,.13-1.826A13.65,13.65,0,0,0,62.4,12.4,12.076,12.076,0,0,0,63.918,2.14,2.911,2.911,0,0,0,61.468.085,12.1,12.1,0,0,0,51.909,3.1a22.793,22.793,0,0,0-15.073,0A12.1,12.1,0,0,0,27.277.085,2.912,2.912,0,0,0,24.828,2.14,12.072,12.072,0,0,0,26.35,12.4a13.633,13.633,0,0,0-1.109,5.384c0,5.132,2.909,8.967,8.282,11.059q-.094.243-.176.489a8.561,8.561,0,0,1-6.114-2.647,3.076,3.076,0,1,0-5.061,3.5,13.174,13.174,0,0,0,6.319,4.447,14.015,14.015,0,0,0,4.689.852h.1a10.321,10.321,0,0,0,.738,1.785,2.8,2.8,0,0,1-1.609-.208c-3.895-1.484-7.5-1.9-10.3-1.242a.691.691,0,0,0-.111.027,8.347,8.347,0,0,0-2.433,1,2.2,2.2,0,1,0,2.329,3.725c1.728-1.08,5.159-.853,8.953.592a7.768,7.768,0,0,0,2.759.545,6.3,6.3,0,0,0,1.617-.212,8.317,8.317,0,0,0,1.289,7.1,3.075,3.075,0,0,0,5.167-3.337c-.75-1.16-.749-1.711-.433-2.363a12.262,12.262,0,0,0,3.133.4,12.077,12.077,0,0,0,6.232-1.71l.036.04a3.377,3.377,0,0,1,.667,3.039,3.075,3.075,0,1,0,5.8,2.05c.04-.114.079-.232.114-.349a.732.732,0,1,0-1.4-.424c-.029.095-.06.191-.093.285a1.611,1.611,0,1,1-3.037-1.074,4.824,4.824,0,0,0-.875-4.4A11.137,11.137,0,0,0,54.04,38.4c.048.052.1.1.143.158A8.138,8.138,0,0,1,56.066,42.9a.732.732,0,0,0,.727.646.63.63,0,0,0,.086,0,.732.732,0,0,0,.642-.813A9.62,9.62,0,0,0,55.29,37.6c-.151-.174-.309-.34-.472-.5a10.144,10.144,0,0,0,1.054-3.673,19.112,19.112,0,0,0,5.372-3.794,12.293,12.293,0,0,0,3.639-6.965A3.053,3.053,0,0,0,64.265,20.394ZM32.944,34.013a12.921,12.921,0,0,1-3.964-.763,11.683,11.683,0,0,1-5.6-3.9,1.611,1.611,0,0,1,2.65-1.832c1.078,1.561,4.214,3.181,6.952,3.274a10.161,10.161,0,0,0-.036,3.22ZM61.625,10.864A16.355,16.355,0,0,0,57.85,6.451q-.16-.132-.324-.261a12.8,12.8,0,0,1,5.265-2.467A10.606,10.606,0,0,1,61.625,10.864ZM61.3,1.54a1.445,1.445,0,0,1,1.113.767A14.162,14.162,0,0,0,56.3,5.3a19.671,19.671,0,0,0-2.855-1.578A10.654,10.654,0,0,1,61.3,1.54Zm-33.848,0A10.653,10.653,0,0,1,35.3,3.723,19.777,19.777,0,0,0,32.443,5.3a14.168,14.168,0,0,0-6.108-2.994A1.445,1.445,0,0,1,27.449,1.54ZM25.955,3.723A12.8,12.8,0,0,1,31.22,6.19c-.109.086-.218.173-.324.261a16.377,16.377,0,0,0-3.776,4.413A10.6,10.6,0,0,1,25.955,3.723ZM21.112,39.33a.732.732,0,0,1-.776-1.242,6.752,6.752,0,0,1,1.612-.721,3.138,3.138,0,0,1,.5,1.372A5.4,5.4,0,0,0,21.112,39.33Zm12.488.914a6.312,6.312,0,0,1-2.237-.449,17.123,17.123,0,0,0-7.47-1.328,4.714,4.714,0,0,0-.435-1.413,18.159,18.159,0,0,1,8.426,1.372,4.013,4.013,0,0,0,2.932.128,10.987,10.987,0,0,0,.98,1.167A4.877,4.877,0,0,1,33.6,40.244Zm7.064,7.019a1.611,1.611,0,0,1-2.928.535c-1.924-2.979-1.51-5.246-.693-6.961a11.722,11.722,0,0,0,2.806,1.6c-.45,1.064-.4,2.083.593,3.617A1.6,1.6,0,0,1,40.664,47.263Zm.1-16.809c1.157.107,2.371.162,3.609.162a31.831,31.831,0,0,0,9.465-1.289,8.627,8.627,0,0,1,.609,3.194c0,5.134-4.519,9.31-10.074,9.31S34.3,37.655,34.3,32.521a8.648,8.648,0,0,1,.308-2.293h0a8.779,8.779,0,0,1,.3-.9q1.117.348,2.355.607a.711.711,0,0,0,.151.016.733.733,0,0,0,.148-1.45,22.907,22.907,0,0,1-2.8-.763l-.041-.014a14.043,14.043,0,0,1-5.046-2.892,9.259,9.259,0,0,1-2.97-7.046c0-8,7.925-14.5,17.667-14.5s17.666,6.5,17.666,14.5a11.31,11.31,0,0,1-.088,1.416,3.074,3.074,0,0,0-3.169,2.683c-.294,2.3-2.645,4.678-4.835,5.864a29.621,29.621,0,0,1-9.575,1.4c-1.193,0-2.361-.052-3.473-.155a.732.732,0,1,0-.135,1.458ZM63.43,22.48c-.579,4.529-4.637,7.769-7.545,9.3a10.081,10.081,0,0,0-.708-3.051,13.525,13.525,0,0,0,2.936-2.448,8.04,8.04,0,0,0,2.122-4.211,1.609,1.609,0,0,1,1.8-1.393,1.642,1.642,0,0,1,.3.067l.012,0A1.61,1.61,0,0,1,63.43,22.48Z" transform="translate(56)" fill="#454f5b"/>
      <path d="M53.481,17.691a.733.733,0,0,0,.822.631,14.181,14.181,0,0,1,3.618.22.723.723,0,0,0,.178.022.732.732,0,0,0,.177-1.443,15.449,15.449,0,0,0-4.165-.252A.732.732,0,0,0,53.481,17.691Z" fill="#454f5b"/>
      <path d="M57.473,21.19a15.44,15.44,0,0,0-3.754-1.82.733.733,0,0,0-.376,1.416,14.205,14.205,0,0,1,3.26,1.583.733.733,0,0,0,.87-1.179Z" fill="#454f5b"/>
      <path d="M49.889,15.99a.732.732,0,0,0,.732-.732.839.839,0,1,1,1.677,0,.733.733,0,0,0,1.465,0,2.3,2.3,0,1,0-4.607,0A.733.733,0,0,0,49.889,15.99Z" fill="#454f5b"/>
      <path d="M44.248,20.954c.042,0,.085,0,.127,0a2.579,2.579,0,0,0,1.793-.718,2.615,2.615,0,0,0,.806-1.882V16.789a1.654,1.654,0,0,0-.628-1.3,3.207,3.207,0,0,0-3.947,0,1.656,1.656,0,0,0-.627,1.3V18.3A2.624,2.624,0,0,0,44.248,20.954ZM43.3,16.648a1.742,1.742,0,0,1,2.144,0,.178.178,0,0,1,.064.141v1.568a1.135,1.135,0,0,1-1.192,1.134,1.175,1.175,0,0,1-1.08-1.187V16.789h0A.178.178,0,0,1,43.3,16.648Z" fill="#454f5b"/>
    </g>
  </symbol>
  <symbol xmlns="http://www.w3.org/2000/svg" viewBox="0 0 38.917 50" id="cat-light">
    <defs>
      <clipPath id="clip-path">
        <rect id="SVGID" width="38.916" height="50" transform="translate(523 179)" fill="#454f5b"/>
      </clipPath>
    </defs>
    <g transform="translate(-523 -179)">
      <path d="M552.044,217.088a13.826,13.826,0,0,1,3.49.212.763.763,0,0,0,.176.021.73.73,0,0,0,.175-1.438,14.957,14.957,0,0,0-4.031-.242.73.73,0,1,0,.19,1.447Zm0,0" fill="#454f5b"/>
      <path d="M539.009,191.7a2.019,2.019,0,0,1,.672,1.3,1.607,1.607,0,0,0-1.512,1.6v1.3a1.606,1.606,0,0,0,1.04,1.5,3.337,3.337,0,0,0,6.474,0,1.605,1.605,0,0,0,1.039-1.5v-1.3a1.607,1.607,0,0,0-1.511-1.6,1.933,1.933,0,0,1,.643-1.272,5.149,5.149,0,0,0,.58-.6.73.73,0,1,0-1.129-.926,3.677,3.677,0,0,1-.416.431,3.393,3.393,0,0,0-1.142,2.363h-2.6a3.47,3.47,0,0,0-1.163-2.381,3.695,3.695,0,1,1,6.156-2.905.73.73,0,1,0,1.459-.059,5.155,5.155,0,1,0-8.588,4.052Zm3.437,6.761a1.885,1.885,0,0,1-1.635-.959h3.27a1.884,1.884,0,0,1-1.635.959Zm2.671-4.007a.145.145,0,0,1,.145.145v1.3a.145.145,0,0,1-.145.145h-5.341a.145.145,0,0,1-.146-.145v-1.3a.145.145,0,0,1,.146-.145Zm0,0" fill="#454f5b"/>
      <path d="M542.446,181.9a.73.73,0,0,0,.73-.73v-1.4a.73.73,0,0,0-1.46,0v1.4a.73.73,0,0,0,.73.73Zm0,0" fill="#454f5b"/>
      <path d="M548.4,189.018a.73.73,0,0,0,.577.856l1.4.272a.737.737,0,0,0,.14.013.73.73,0,0,0,.138-1.447l-1.4-.271a.73.73,0,0,0-.856.577Zm0,0" fill="#454f5b"/>
      <path d="M535.042,184.231l1.216.736a.73.73,0,1,0,.756-1.249l-1.217-.737a.73.73,0,0,0-.755,1.25Zm0,0" fill="#454f5b"/>
      <g clip-path="url(#clip-path)">
        <path d="M548.257,185.073a.736.736,0,0,0,.378-.106l1.216-.736a.731.731,0,0,0-.757-1.25l-1.216.737a.731.731,0,0,0,.379,1.355Zm0,0" fill="#454f5b"/>
        <path d="M561.355,201.527a2.832,2.832,0,0,0-2.387-1.989,11.765,11.765,0,0,0-9.243,2.893,22.2,22.2,0,0,0-14.557,0,11.773,11.773,0,0,0-9.244-2.893,2.832,2.832,0,0,0-2.386,1.989A11.549,11.549,0,0,0,525,211.386a13.032,13.032,0,0,0-1.067,5.161c0,4.72,2.566,8.313,7.421,10.391a.73.73,0,0,0,.574-1.343,11.518,11.518,0,0,1-4.783-3.534,8.941,8.941,0,0,1-1.751-5.514c0-7.655,7.648-13.883,17.049-13.883s17.05,6.228,17.05,13.883a9.047,9.047,0,0,1-4.848,8.2c-2.976,1.751-7.2,2.676-12.2,2.676a31.612,31.612,0,0,1-7.316-.787.73.73,0,0,0-.34,1.42,33.048,33.048,0,0,0,7.656.827c5.267,0,9.742-.995,12.943-2.877a10.551,10.551,0,0,0,5.567-9.459,13.03,13.03,0,0,0-1.067-5.161,11.549,11.549,0,0,0,1.466-9.859ZM529.41,205.65a15.792,15.792,0,0,0-3.636,4.209,10.074,10.074,0,0,1-1.109-6.772,12.4,12.4,0,0,1,5.029,2.335c-.095.075-.19.151-.284.228Zm1.509-1.113a13.75,13.75,0,0,0-5.867-2.86,1.379,1.379,0,0,1,1.042-.689,10.443,10.443,0,0,1,7.535,2.06,19.1,19.1,0,0,0-2.71,1.489Zm20.344-1.489a10.445,10.445,0,0,1,7.536-2.06,1.376,1.376,0,0,1,1.041.69,13.735,13.735,0,0,0-5.867,2.859,19.108,19.108,0,0,0-2.71-1.489Zm7.855,6.811a15.79,15.79,0,0,0-3.636-4.209q-.141-.115-.285-.228a12.4,12.4,0,0,1,5.03-2.335,10.073,10.073,0,0,1-1.109,6.772Zm0,0" fill="#454f5b"/>
      </g>
      <path d="M545.765,216.32c0-2.157-1.489-3.912-3.319-3.912s-3.319,1.755-3.319,3.912,1.489,3.912,3.319,3.912,3.319-1.755,3.319-3.912Zm-5.178,0a1.93,1.93,0,1,1,1.859,2.452,2.221,2.221,0,0,1-1.859-2.452Zm0,0" fill="#454f5b"/>
      <path d="M535.6,215.079a.73.73,0,0,0,.73-.73V213.22a.73.73,0,0,0-1.46,0v1.129a.73.73,0,0,0,.73.73Zm0,0" fill="#454f5b"/>
      <path d="M550.025,214.349V213.22a.73.73,0,0,0-1.461,0v1.129a.73.73,0,0,0,1.461,0Zm0,0" fill="#454f5b"/>
      <path d="M534.3,218.56a.73.73,0,0,0-.892-.52,14.943,14.943,0,0,0-3.635,1.749.73.73,0,0,0,.863,1.178,13.78,13.78,0,0,1,3.144-1.515.73.73,0,0,0,.52-.892Zm0,0" fill="#454f5b"/>
      <path d="M534.382,190.159a.763.763,0,0,0,.141-.013l1.4-.272a.73.73,0,0,0-.279-1.434l-1.395.272a.73.73,0,0,0,.138,1.447Zm0,0" fill="#454f5b"/>
      <path d="M550.59,218.56a.73.73,0,0,0,.52.892,13.74,13.74,0,0,1,3.144,1.515.73.73,0,1,0,.863-1.178,15,15,0,0,0-3.635-1.749.73.73,0,0,0-.892.52Zm0,0" fill="#454f5b"/>
      <path d="M532.848,217.088a.73.73,0,0,0,.189-1.448,15.084,15.084,0,0,0-4.031.242.73.73,0,0,0,.176,1.439.762.762,0,0,0,.176-.021,13.829,13.829,0,0,1,3.49-.212Zm0,0" fill="#454f5b"/>
    </g>
  </symbol>
  <symbol xmlns="http://www.w3.org/2000/svg" viewBox="0 0 11.805 9" id="check">
    <path d="M7.162,12.691l-2.8-2.8-.953.946L7.162,14.59l8.054-8.054-.946-.946Z" transform="translate(-3.41 -5.59)" fill="currentColor"/>
  </symbol>
  <symbol xmlns="http://www.w3.org/2000/svg" viewBox="0 0 8 8" id="cross">
    <path d="M9489.239,1605.581l-.806-.806-3.194,3.194-3.194-3.194-.806.806,3.194,3.194-3.194,3.194.806.806,3.194-3.194,3.194,3.194.806-.806-3.194-3.194Z" transform="translate(-9481.239 -1604.775)" fill="currentColor"/>
  </symbol>
  <symbol xmlns="http://www.w3.org/2000/svg" viewBox="0 0 6.545 9" fill="currentColor" id="sync">
    <path d="M7.273,2.227V1L5.636,2.636,7.273,4.273V3.045A2.456,2.456,0,0,1,9.727,5.5a2.4,2.4,0,0,1-.286,1.145l.6.6A3.267,3.267,0,0,0,7.273,2.227Zm0,5.727A2.456,2.456,0,0,1,4.818,5.5,2.4,2.4,0,0,1,5.1,4.355l-.6-.6A3.267,3.267,0,0,0,7.273,8.773V10L8.909,8.364,7.273,6.727Z" transform="translate(-4 -1)"/>
  </symbol>
  <symbol xmlns="http://www.w3.org/2000/svg" viewBox="0 0 42.343 50" id="cat-hug">
    <defs>
      <clipPath id="clip-path">
        <rect width="42.343" height="50" transform="translate(283.808 371.44)" fill="#454f5b"/>
      </clipPath>
    </defs>
    <g transform="translate(-283.808 -371.44)">
      <g clip-path="url(#clip-path)">
        <path d="M310.962,389.114a2.531,2.531,0,1,0-.746,2.34.718.718,0,0,0,.034.323.728.728,0,0,0,.927.454,12.14,12.14,0,0,1,3-.417.73.73,0,1,0,.067-1.458,13.155,13.155,0,0,0-3.537.493l-.02.008a2.517,2.517,0,0,0,.279-1.743Zm-2.267,1.547a1.068,1.068,0,0,1-.422-2.094,1.088,1.088,0,0,1,.211-.021,1.068,1.068,0,0,1,.211,2.115Zm0,0" fill="#454f5b"/>
        <path d="M325.908,402.676a2.464,2.464,0,0,0-3.2-1.39.611.611,0,0,1-.791-.344.61.61,0,0,1,.344-.792,2.465,2.465,0,1,0-1.806-4.587,5.509,5.509,0,0,0-3.05,2.944,5.586,5.586,0,0,0-.391,1.325,21.158,21.158,0,0,1-3.162.965l-.041-.067a14.738,14.738,0,0,0,1.82-1.389,9.4,9.4,0,0,0,3.155-9.22,11.645,11.645,0,0,0-1.8-4.27,10.325,10.325,0,0,0-.482-8.8,2.576,2.576,0,0,0-2.482-1.353,10.351,10.351,0,0,0-7.461,4.094,18.977,18.977,0,0,0-5.719.078l-.384-1.908a3.382,3.382,0,1,0-1.432.29l.385,1.907a18.984,18.984,0,0,0-5.3,2.146,10.346,10.346,0,0,0-8.465-.88,2.573,2.573,0,0,0-1.763,2.209,10.327,10.327,0,0,0,2.969,8.3,11.671,11.671,0,0,0-.007,4.636,9.885,9.885,0,0,0,1.3,3.334.73.73,0,1,0,1.235-.778,8.442,8.442,0,0,1-1.107-2.845,10.208,10.208,0,0,1,.074-4.356.781.781,0,0,0,.029-.125,12.2,12.2,0,0,1,2.416-4.749,15.2,15.2,0,0,1,3.647-3.237.75.75,0,0,0,.12-.075,17.551,17.551,0,0,1,5.85-2.307h0a17.554,17.554,0,0,1,6.289-.141.809.809,0,0,0,.138.023,15.417,15.417,0,0,1,3.658,1.1l.015.006q.481.215.945.463a12.218,12.218,0,0,1,4.068,3.441.661.661,0,0,0,.074.1,10.223,10.223,0,0,1,1.758,3.988,7.906,7.906,0,0,1-2.7,7.847,13.938,13.938,0,0,1-2.242,1.626l-.018.01a24.984,24.984,0,0,1-7.7,2.767c-5.624,1.135-10.319.651-13.22-1.363a.73.73,0,1,0-.833,1.2,12.422,12.422,0,0,0,4.9,1.915l-.013.084a21.143,21.143,0,0,1-3.292.336,5.612,5.612,0,0,0-.828-1.025,5.506,5.506,0,0,0-3.866-1.576h-.13a2.465,2.465,0,1,0,.115,4.928.61.61,0,1,1,.027,1.22,2.464,2.464,0,0,0-2.406,2.522,2.478,2.478,0,0,0,2.462,2.407h.059a5.5,5.5,0,0,0,3.878-1.713,5.566,5.566,0,0,0,.95-1.345,26.968,26.968,0,0,0,3.93-.4,8.851,8.851,0,0,0,.751,1.187,3.8,3.8,0,0,1-.669.136c-3.61.429-5.9,1.755-7.013,4.054a1.971,1.971,0,0,0,1.772,2.825,1.983,1.983,0,0,0,1.775-1.114c.478-.99,1.763-1.6,3.931-1.855a6.518,6.518,0,0,0,3.437-1.355c.122.062.244.121.368.178v4.71a2.712,2.712,0,1,0,5.424,0v-3.863c.3-.035.6-.081.9-.142a10.547,10.547,0,0,0,1.579-.449l1.409,3.629a2.721,2.721,0,0,0,2.53,1.731,2.63,2.63,0,0,0,.458-.039,2.715,2.715,0,0,0,2.253-2.716.731.731,0,0,0-.73-.719H314.6a.73.73,0,0,0-.718.742,1.258,1.258,0,0,1-.8,1.187,1.359,1.359,0,0,1-.242.068,1.256,1.256,0,0,1-1.378-.782l-1.436-3.7a10.079,10.079,0,0,0,2.1-1.5l.73,1.881a.732.732,0,0,0,.682.466.717.717,0,0,0,.263-.05.73.73,0,0,0,.417-.945l-.995-2.564c.061-.08.123-.159.182-.241a9.06,9.06,0,0,0,1.7-4.521,27.021,27.021,0,0,0,3.776-1.151,5.554,5.554,0,0,0,5.639.946,2.462,2.462,0,0,0,1.39-3.2ZM289.659,386.13a14.015,14.015,0,0,0-2.347,4.139,8.853,8.853,0,0,1-2.008-5.391,10.721,10.721,0,0,1,4.492,1.086c-.046.055-.092.11-.137.166Zm1.157-1.28a12.05,12.05,0,0,0-5.39-1.43,1.115,1.115,0,0,1,.673-.612,9.013,9.013,0,0,1,6.628.41,16.715,16.715,0,0,0-1.911,1.632Zm8.653-8.1a1.924,1.924,0,1,1,1.506-2.267,1.926,1.926,0,0,1-1.506,2.267Zm11.116,4.111a16.97,16.97,0,0,0-2.393-.764,9,9,0,0,1,5.95-2.947,1.115,1.115,0,0,1,.857.3,12.078,12.078,0,0,0-4.414,3.409Zm5.332,3.636a13.978,13.978,0,0,0-3.769-2.9l-.19-.1a10.709,10.709,0,0,1,3.718-2.743,8.854,8.854,0,0,1,.241,5.748Zm-25.422,26.089a4.054,4.054,0,0,1-2.857,1.261h-.024a1.009,1.009,0,0,1-1-.981,1,1,0,0,1,.98-1.027,2.071,2.071,0,0,0-.045-4.141H287.5a1,1,0,0,1-.047-2.007l.1,0a4.08,4.08,0,0,1,2.949,6.9Zm2.5-1.821a5.6,5.6,0,0,0-.118-2.5,22.622,22.622,0,0,0,2.558-.271,8.7,8.7,0,0,0,.17,1.52,8.564,8.564,0,0,0,.248.948,25.46,25.46,0,0,1-2.858.3Zm-1.264,7.533a.507.507,0,0,1-.459.288.509.509,0,0,1-.457-.73,4.609,4.609,0,0,1,.366-.629,5.651,5.651,0,0,1,.846.569,3.558,3.558,0,0,0-.3.5Zm5.074-2.67a8.611,8.611,0,0,0-3.715,1.156,6.676,6.676,0,0,0-.865-.637,9.082,9.082,0,0,1,4.46-1.53,4.585,4.585,0,0,0,1.534-.431,9.132,9.132,0,0,0,.846.7,5.389,5.389,0,0,1-2.26.74Zm7.941,4.983a1.252,1.252,0,1,1-2.5,0v-4.172a10.217,10.217,0,0,0,2.5.374Zm7.469-8.865a8.55,8.55,0,0,1-3.392,2.777c-.021.009-.041.018-.06.028a9.138,9.138,0,0,1-1.944.623,8.711,8.711,0,0,1-6.3-1.067,7.546,7.546,0,0,1-3.006-3.388,7.234,7.234,0,0,1-.59-3.548l0-.029c.016-.178.039-.354.068-.531q1.033.1,2.144.105a29.75,29.75,0,0,0,5.851-.625,27.28,27.28,0,0,0,7.571-2.614c.1.161.2.325.287.493l.005.009a7.2,7.2,0,0,1,.68,1.92,7.427,7.427,0,0,1-1.314,5.847Zm2.885-5.166a8.955,8.955,0,0,0-.14-.97,8.781,8.781,0,0,0-.432-1.467,22.8,22.8,0,0,0,2.462-.742,5.54,5.54,0,0,0,.344,1.346,5.674,5.674,0,0,0,.517,1,25.377,25.377,0,0,1-2.751.831Zm9.436-.6a1,1,0,0,1-.553.533,4.033,4.033,0,0,1-1.489.284,4.112,4.112,0,0,1-3.8-2.585,4.079,4.079,0,0,1,2.3-5.29.988.988,0,0,1,.367-.07,1,1,0,0,1,.369,1.939,2.07,2.07,0,0,0,1.517,3.853,1.005,1.005,0,0,1,1.289,1.336Zm0,0" fill="#454f5b"/>
      </g>
      <path d="M314.3,393.874a13.18,13.18,0,0,0-3.458-.891.73.73,0,0,0-.088,1.458,12.113,12.113,0,0,1,2.928.756.73.73,0,1,0,.618-1.323Zm0,0" fill="#454f5b"/>
      <path d="M303.893,390.281l-3.255.657a2.389,2.389,0,0,0,.468,4.731,2.419,2.419,0,0,0,.477-.048l3.255-.657a2.389,2.389,0,0,0-.945-4.683Zm-3.3,3.772a.928.928,0,0,1-.26-1.287.921.921,0,0,1,.421-.345l.36,1.787a.922.922,0,0,1-.521-.155Zm1.956-.118-.367-1.819.737-.149.367,1.82Zm2.585-.8a.912.912,0,0,1-.42.345l-.36-1.787h.009a.928.928,0,0,1,.771,1.442Zm0,0" fill="#454f5b"/>
      <path d="M295.283,396.122a13.239,13.239,0,0,0-2.842,2.162.73.73,0,0,0,.052,1.031.721.721,0,0,0,.489.189.73.73,0,0,0,.542-.24,12.113,12.113,0,0,1,2.406-1.832.731.731,0,0,0-.647-1.31Zm0,0" fill="#454f5b"/>
      <path d="M291.13,395.019a.73.73,0,1,0,.627,1.318,12.112,12.112,0,0,1,2.923-.777.73.73,0,0,0,.678-.778.7.7,0,0,0-.1-.312,2.545,2.545,0,1,0-.658-.368h-.024a13.182,13.182,0,0,0-3.451.916Zm4.128-3.507a1.062,1.062,0,0,1,.678-.455,1.024,1.024,0,0,1,.212-.022,1.068,1.068,0,1,1-.591,1.958,1.069,1.069,0,0,1-.3-1.481Zm0,0" fill="#454f5b"/>
    </g>
  </symbol>
  <symbol xmlns="http://www.w3.org/2000/svg" viewBox="0 0 74.825 75" id="cat-coffee">
    <defs>
      <clipPath id="clip-path">
        <rect width="74.825" height="75" transform="translate(268.548 425.908)" fill="#454f5b"/>
      </clipPath>
    </defs>
    <g transform="translate(-268.548 -425.908)">
      <path d="M339.271,464.31a.982.982,0,0,0,.162-.012,1.1,1.1,0,0,0,.923-1.243,6.84,6.84,0,0,1,.372-3.118,5.876,5.876,0,0,0,.274-3.316,1.1,1.1,0,1,0-2.114.572,4.083,4.083,0,0,1-.265,2.138,8.986,8.986,0,0,0-.434,4.044,1.1,1.1,0,0,0,1.082.935Zm0,0" fill="#454f5b"/>
      <path d="M334.219,464.31a1,1,0,0,0,.162-.012,1.094,1.094,0,0,0,.922-1.243,6.851,6.851,0,0,1,.372-3.118,5.876,5.876,0,0,0,.274-3.316,1.095,1.095,0,1,0-2.114.571,4.076,4.076,0,0,1-.265,2.139,8.972,8.972,0,0,0-.433,4.044,1.1,1.1,0,0,0,1.082.935Zm0,0" fill="#454f5b"/>
      <path d="M293.877,448.814a6.711,6.711,0,0,1-1.324.244,1.077,1.077,0,0,0,.1-.447v-1.759a1.089,1.089,0,0,0-.3-.748,7.332,7.332,0,0,1,1.526.262,1.085,1.085,0,0,0,.343.056,1.1,1.1,0,0,0,.345-2.135,11.258,11.258,0,0,0-6.021,0,1.095,1.095,0,1,0,.687,2.079,7.321,7.321,0,0,1,1.525-.262,1.088,1.088,0,0,0-.3.748v1.759a1.1,1.1,0,0,0,.095.447,6.74,6.74,0,0,1-1.322-.243,1.1,1.1,0,1,0-.689,2.079,11.262,11.262,0,0,0,6.022,0,1.1,1.1,0,0,0-.688-2.08Zm0,0" fill="#454f5b"/>
      <path d="M287.3,453.364a1.095,1.095,0,0,0,.287-2.171,23.051,23.051,0,0,0-6.228.376,1.1,1.1,0,0,0,.266,2.158,1.111,1.111,0,0,0,.266-.032,21.215,21.215,0,0,1,5.409-.331Zm0,0" fill="#454f5b"/>
      <g clip-path="url(#clip-path)">
        <path d="M288.176,454.932a23.107,23.107,0,0,0-5.615,2.721,1.1,1.1,0,0,0,1.3,1.763,21.216,21.216,0,0,1,4.875-2.366,1.1,1.1,0,0,0-.562-2.118Zm0,0" fill="#454f5b"/>
        <path d="M341.394,465.492h-9.525a1.922,1.922,0,0,0-1.919,1.92v.572h-2.716a2.605,2.605,0,0,0-2.6,2.6v.688a4.567,4.567,0,0,0-2.189,1.247c-.877.895-1.289.873-1.329.868-.28-.034-1.037-.427-1.977-1.642a15.1,15.1,0,0,0-.764-2.651,25.947,25.947,0,0,0,3.79-1.828c5.623-3.331,8.6-8.416,8.6-14.7a20.4,20.4,0,0,0-1.657-8.051,18.056,18.056,0,0,0,2.276-15.345,4.353,4.353,0,0,0-3.663-3.073,18.094,18.094,0,0,0-14.293,4.513,34.1,34.1,0,0,0-22.54,0,18.1,18.1,0,0,0-14.293-4.513,4.353,4.353,0,0,0-3.663,3.074,18.058,18.058,0,0,0,2.276,15.345,20.379,20.379,0,0,0-1.658,8.05,15.956,15.956,0,0,0,5.666,12.612,22.971,22.971,0,0,0,6.718,3.924c-.141.361-.266.726-.379,1.094-.02.011-.043.019-.063.031-3.766,1.993-6.238-1.473-6.907-2.582a4.6,4.6,0,1,0-7.879,4.744c2.954,4.9,7.389,7.606,12.489,7.606a14.027,14.027,0,0,0,2.611-.248,15.6,15.6,0,0,0,1.765,3.45c-1.057,1.946-1.542,2.493-3.773,2.514h-.139a4.937,4.937,0,0,1-4.385-1.836,12.451,12.451,0,0,0-4.862-3.23c-.01,0-.019-.008-.029-.01a13.1,13.1,0,0,0-1.951-.508,3.285,3.285,0,0,0-1.181,6.464,5.731,5.731,0,0,1,3.438,1.989,11.28,11.28,0,0,0,8.987,3.7h.179c4.583-.043,6.913-2,8.438-4.211a27.443,27.443,0,0,1-.028,7.511,4.6,4.6,0,1,0,9.13,1.11,44.155,44.155,0,0,0,.33-5.985c.144,0,.288.005.433.005a18.445,18.445,0,0,0,2.318-.146,34.287,34.287,0,0,1-.257,5.016,4.6,4.6,0,0,0,4.011,5.12,4.546,4.546,0,0,0,.558.034,4.629,4.629,0,0,0,4.272-2.9,1.1,1.1,0,0,0-2.037-.807,2.409,2.409,0,0,1-4.63-1.179,35.411,35.411,0,0,0,.261-5.69,17.841,17.841,0,0,0,4.679-1.916,30.912,30.912,0,0,1,.144,4.289,1.094,1.094,0,0,0,1.06,1.129h.035a1.1,1.1,0,0,0,1.094-1.062,30.859,30.859,0,0,0-.308-5.751,16.434,16.434,0,0,0,4.184-4.954,10.054,10.054,0,0,0,2.445.628,9.593,9.593,0,0,0,1.173.072,10.888,10.888,0,0,0,7.858-3.628,4.6,4.6,0,0,0,.939-1.4v.17a2.727,2.727,0,0,0,2.724,2.724h7.914a2.727,2.727,0,0,0,2.725-2.724V467.412a1.922,1.922,0,0,0-1.919-1.92ZM283.188,477.8c-4.3,0-8.071-2.325-10.613-6.546a2.409,2.409,0,0,1,4.127-2.485c1.6,2.648,4.627,5.051,8.3,4a15.366,15.366,0,0,0-.11,1.827,15.079,15.079,0,0,0,.307,3.029,11.8,11.8,0,0,1-2.015.176ZM272.364,484.6c-.228-.061-.469-.117-.727-.164a1.1,1.1,0,0,1-.88-1.274,1.095,1.095,0,0,1,1.273-.879c.318.057.617.125.9.2a6.176,6.176,0,0,1-.567,2.117Zm55.585-42.385a24.477,24.477,0,0,0-5.646-6.6c-.159-.132-.321-.262-.484-.391a19.137,19.137,0,0,1,7.873-3.688,15.848,15.848,0,0,1-1.743,10.678Zm-.491-13.943a2.166,2.166,0,0,1,1.665,1.148,21.159,21.159,0,0,0-9.133,4.477,29.543,29.543,0,0,0-4.27-2.361,15.927,15.927,0,0,1,11.738-3.264Zm-50.614,0a15.93,15.93,0,0,1,11.738,3.264,29.481,29.481,0,0,0-4.269,2.361,21.168,21.168,0,0,0-9.134-4.477,2.164,2.164,0,0,1,1.665-1.148Zm-2.234,3.265a19.131,19.131,0,0,1,7.873,3.688q-.244.193-.484.391a24.477,24.477,0,0,0-5.646,6.6,15.861,15.861,0,0,1-1.743-10.678Zm9.219,58.553h-.16a9.16,9.16,0,0,1-7.459-3.08,11.417,11.417,0,0,0-1.831-1.545,8.037,8.037,0,0,0,.656-2.158,12.019,12.019,0,0,1,2.7,2.136,6.974,6.974,0,0,0,5.913,2.457h.155c3-.027,4.174-1.112,5.222-2.851a16.881,16.881,0,0,0,1.616,1.546c-1.189,1.844-2.888,3.459-6.816,3.5Zm15.385,6.336a2.409,2.409,0,0,1-2.386,2.119,2.463,2.463,0,0,1-.3-.018,2.412,2.412,0,0,1-2.1-2.682,33.042,33.042,0,0,0,.194-6.749,17.942,17.942,0,0,0,4.9,1.428,41.416,41.416,0,0,1-.31,5.9Zm-.653-24.781c1.167.07,2.375.1,3.59.1a47.823,47.823,0,0,0,14.153-1.927,12.869,12.869,0,0,1,.715,2.519.926.926,0,0,0,.017.092,13.107,13.107,0,0,1,.18,2.165c0,7.676-6.758,13.922-15.065,13.922s-15.065-6.246-15.065-13.922a12.945,12.945,0,0,1,.427-3.306.407.407,0,0,0,.013-.047,13.021,13.021,0,0,1,.47-1.419,39.247,39.247,0,0,0,5.206,1.223,1.1,1.1,0,0,0,.362-2.161,36.071,36.071,0,0,1-5.717-1.413.978.978,0,0,0-.179-.064,21.507,21.507,0,0,1-7.027-3.893,13.849,13.849,0,0,1-4.907-10.953c0-11.956,11.851-21.682,26.417-21.682s26.418,9.726,26.418,21.682c0,5.549-2.531,9.862-7.522,12.819a24.592,24.592,0,0,1-4.487,2.049l-.034.013a44.423,44.423,0,0,1-14.375,2.113c-1.171,0-2.336-.034-3.459-.1a1.095,1.095,0,0,0-.131,2.186Zm28.886,5.784a8.761,8.761,0,0,1-6.294,2.972,7.367,7.367,0,0,1-.9-.056,7.831,7.831,0,0,1-1.8-.449,15.07,15.07,0,0,0,.954-4.9,3.558,3.558,0,0,0,1.447.565,3.937,3.937,0,0,0,3.159-1.509,2.4,2.4,0,0,1,.625-.458v.87a2.6,2.6,0,0,0,2.6,2.6h.5a2.486,2.486,0,0,1-.288.357Zm-.213-2.548a.412.412,0,0,1-.412-.412v-.87a2.387,2.387,0,0,1,1.152,1.282Zm2.716-.957a4.6,4.6,0,0,0-3.128-2.65v-.686a.413.413,0,0,1,.412-.412h2.716Zm11.172,3.807a.534.534,0,0,1-.534.534h-7.914a.535.535,0,0,1-.534-.534V467.683h8.982Zm0,0" fill="#454f5b"/>
      </g>
      <path d="M299.358,451.315h5.587a1.1,1.1,0,0,0,0-2.19h-5.587a1.1,1.1,0,1,0,0,2.19Zm0,0" fill="#454f5b"/>
      <path d="M315.771,452.422a1.094,1.094,0,0,0,1.229.942,21.215,21.215,0,0,1,5.409.331,1.119,1.119,0,0,0,.267.032,1.1,1.1,0,0,0,.265-2.158,23.051,23.051,0,0,0-6.228-.376,1.094,1.094,0,0,0-.942,1.229Zm0,0" fill="#454f5b"/>
      <path d="M321.74,457.653a23.118,23.118,0,0,0-5.614-2.721,1.1,1.1,0,0,0-.562,2.118,21.224,21.224,0,0,1,4.876,2.366,1.1,1.1,0,0,0,1.3-1.763Zm0,0" fill="#454f5b"/>
      <path d="M309.042,449.51a1.1,1.1,0,0,0,.7,1.384,11.258,11.258,0,0,0,6.021,0,1.1,1.1,0,0,0-.688-2.08,6.686,6.686,0,0,1-1.323.244,1.093,1.093,0,0,0,.1-.447v-1.759a1.089,1.089,0,0,0-.3-.748,7.31,7.31,0,0,1,1.525.262,1.095,1.095,0,1,0,.688-2.079,11.258,11.258,0,0,0-6.021,0,1.1,1.1,0,0,0,.689,2.079,7.287,7.287,0,0,1,1.524-.262,1.088,1.088,0,0,0-.3.748v1.759a1.1,1.1,0,0,0,.1.447,6.739,6.739,0,0,1-1.322-.243,1.1,1.1,0,0,0-1.385.7Zm0,0" fill="#454f5b"/>
    </g>
  </symbol>
  <symbol xmlns="http://www.w3.org/2000/svg" viewBox="0 0 20.193 17.999" id="home-i">
    <g transform="translate(-1774.405 -1161.603)">
      <path d="M1794.382,1168.712l-9.571-7.008a.525.525,0,0,0-.62,0l-9.572,7.008a.524.524,0,1,0,.62.846l9.262-6.781,9.261,6.781a.521.521,0,0,0,.31.1.525.525,0,0,0,.31-.948Z" fill="currentColor"/>
      <path d="M1791.846,1169.677a.525.525,0,0,0-.525.525v8.351h-4.2v-4.559a2.624,2.624,0,0,0-5.247,0v4.559h-4.2V1170.2a.525.525,0,1,0-1.049,0v8.876a.525.525,0,0,0,.524.524h5.247a.525.525,0,0,0,.523-.483c0-.013,0-.026,0-.041v-5.084a1.574,1.574,0,1,1,3.148,0v5.084c0,.015,0,.028,0,.04a.524.524,0,0,0,.523.484h5.246a.525.525,0,0,0,.525-.524V1170.2A.525.525,0,0,0,1791.846,1169.677Z" fill="currentColor"/>
    </g>
  </symbol>
  <symbol xmlns="http://www.w3.org/2000/svg" viewBox="0 0 75 75" id="facebook">
    <defs>
      <clipPath id="clip-path">
        <circle cx="37.5" cy="37.5" r="37.5" transform="translate(218.5 212.486)" fill="none"/>
      </clipPath>
    </defs>
    <g transform="translate(-218.5 -212.486)" clip-path="url(#clip-path)">
      <path d="M270.2,287.27V258.433h9.722l1.456-11.287H270.2v-7.189c0-3.26.9-5.482,5.581-5.482h5.925V224.407a79.669,79.669,0,0,0-8.684-.444c-8.592,0-14.473,5.243-14.473,14.876v8.307h-9.685v11.287h9.685V287.27Z" fill="currentColor"/>
    </g>
  </symbol>
  <symbol xmlns="http://www.w3.org/2000/svg" viewBox="0 0 47.141 46.489" id="instagram">
    <g transform="translate(-354.418 -82.161)">
      <path d="M354.418,96.309c.156-1.1.275-2.213.473-3.308,1.126-6.2,5.518-10.424,11.8-10.64,7.561-.26,15.144-.274,22.7,0a12.149,12.149,0,0,1,12,12.143q.34,10.89,0,21.8a12.149,12.149,0,0,1-12,12.143c-7.559.273-15.145.28-22.7,0-6.836-.257-11.561-5.329-12.018-12.176-.04-.592-.167-1.179-.253-1.769Zm23.577,28.082c3.459,0,6.922.1,10.377-.024,5.417-.2,8.749-3.434,8.876-8.846q.234-10.115,0-20.24c-.127-5.41-3.461-8.719-8.876-8.834q-10.31-.217-20.625,0c-5.374.113-8.716,3.354-8.862,8.706q-.277,10.242,0,20.5c.146,5.35,3.488,8.517,8.862,8.716C371.159,124.494,374.579,124.391,377.995,124.391Z" fill="currentColor"/>
      <path d="M377.988,93.393A12.013,12.013,0,1,0,390,105.4,12.012,12.012,0,0,0,377.988,93.393Zm0,19.889a7.877,7.877,0,1,1,7.877-7.877A7.877,7.877,0,0,1,377.988,113.282Z" fill="currentColor"/>
      <path d="M393.56,92.845a2.857,2.857,0,1,1-2.857-2.858A2.857,2.857,0,0,1,393.56,92.845Z" fill="currentColor"/>
    </g>
  </symbol>
  <symbol xmlns="http://www.w3.org/2000/svg" viewBox="0 0 43.69 35.506" id="twitter">
    <g transform="translate(-35.379 -41.345)">
      <path d="M79.069,45.548a17.865,17.865,0,0,1-5.149,1.41A8.987,8.987,0,0,0,77.862,42a17.934,17.934,0,0,1-5.692,2.174A8.971,8.971,0,0,0,56.9,52.351,25.443,25.443,0,0,1,38.42,42.985a8.973,8.973,0,0,0,2.773,11.967,8.9,8.9,0,0,1-4.059-1.122c0,.038,0,.076,0,.114a8.968,8.968,0,0,0,7.191,8.788,8.992,8.992,0,0,1-4.048.155,8.975,8.975,0,0,0,8.374,6.225,18.089,18.089,0,0,1-13.271,3.711,25.356,25.356,0,0,0,13.739,4.028c16.487,0,25.5-13.659,25.5-25.5,0-.388-.009-.775-.026-1.159a18.168,18.168,0,0,0,4.473-4.639Z" fill="currentColor"/>
    </g>
  </symbol>
  <symbol xmlns="http://www.w3.org/2000/svg" viewBox="0 0 10.364 12" fill="currentColor" id="copy">
    <path d="M9.636,1H3.091A1.094,1.094,0,0,0,2,2.091V9.727H3.091V2.091H9.636Zm1.636,2.182h-6A1.094,1.094,0,0,0,4.182,4.273v7.636A1.094,1.094,0,0,0,5.273,13h6a1.094,1.094,0,0,0,1.091-1.091V4.273A1.094,1.094,0,0,0,11.273,3.182Zm0,8.727h-6V4.273h6Z" transform="translate(-2 -1)"/>
  </symbol>
  <symbol xmlns="http://www.w3.org/2000/svg" viewBox="0 0 16 16" id="profile">
    <path d="M12,5.9A2.1,2.1,0,1,1,9.9,8,2.1,2.1,0,0,1,12,5.9m0,9c2.97,0,6.1,1.46,6.1,2.1v1.1H5.9V17c0-.64,3.13-2.1,6.1-2.1M12,4a4,4,0,1,0,4,4A4,4,0,0,0,12,4Zm0,9c-2.67,0-8,1.34-8,4v3H20V17C20,14.34,14.67,13,12,13Z" transform="translate(-4 -4)" fill="blue"/>
  </symbol>
  <symbol xmlns="http://www.w3.org/2000/svg" viewBox="0 0 13.375 16" id="swap">
    <path d="M14.723,15.384v-6.2H12.955v6.2H10.3l3.05,3.042.486.485,3.536-3.527ZM7.536,3,4,6.527H6.652v6.2H8.42v-6.2h2.652Z" transform="translate(-4 -3)" fill="blue"/>
  </symbol>
  <symbol xmlns="http://www.w3.org/2000/svg" viewBox="0 0 16 12.235" id="group">
    <path d="M17.353,10.647A2.824,2.824,0,1,0,16.5,5.132a4.644,4.644,0,0,1,.847,2.692,4.735,4.735,0,0,1-.847,2.692A2.814,2.814,0,0,0,17.353,10.647Zm-4.706,0A2.824,2.824,0,1,0,9.824,7.824,2.812,2.812,0,0,0,12.647,10.647Zm6.231,2.033a3.482,3.482,0,0,1,1.3,2.673v1.882H23V15.353C23,13.9,20.769,13.009,18.878,12.68Zm-6.231-.151c-1.882,0-5.647.941-5.647,2.824v1.882H18.294V15.353C18.294,13.471,14.529,12.529,12.647,12.529Z" transform="translate(-7 -5)" fill="blue"/>
  </symbol>
  <symbol xmlns="http://www.w3.org/2000/svg" viewBox="0 0 16 16" id="support">
    <g transform="translate(-248 -248)">
      <path d="M263.868,254.594H259.96a3.946,3.946,0,0,1,0,2.812h3.908a7.555,7.555,0,0,0,0-2.812Z" fill="blue"/>
      <path d="M252.04,254.594h-3.908a7.554,7.554,0,0,0,0,2.812h3.908a3.946,3.946,0,0,1,0-2.812Z" fill="blue"/>
      <path d="M256,248a7.94,7.94,0,0,0-1.406.132v3.908a3.946,3.946,0,0,1,2.812,0v-3.908A7.94,7.94,0,0,0,256,248Z" fill="blue"/>
      <path d="M263.444,258.88c.07-.178.146-.352.2-.536h-4.142a4.276,4.276,0,0,1-1.161,1.161v4.142c.184-.057.358-.133.536-.2a3.239,3.239,0,0,0,1.807.556A3.338,3.338,0,0,0,264,260.688,3.24,3.24,0,0,0,263.444,258.88Zm-2.757,4.183a2.342,2.342,0,0,1-.742-.122,8.169,8.169,0,0,0,3-3,2.342,2.342,0,0,1,.121.743A2.4,2.4,0,0,1,260.687,263.063Z" fill="blue"/>
      <path d="M256,260.219a4.184,4.184,0,0,1-1.406-.259v3.908a7.555,7.555,0,0,0,2.812,0V259.96A4.184,4.184,0,0,1,256,260.219Z" fill="blue"/>
      <path d="M253.12,248.555a3.247,3.247,0,0,0-1.808-.555A3.338,3.338,0,0,0,248,251.313a3.246,3.246,0,0,0,.555,1.807c-.069.178-.145.352-.2.536h4.142a4.276,4.276,0,0,1,1.161-1.161v-4.142C253.472,248.41,253.3,248.486,253.12,248.555Zm-4.061,3.5a2.341,2.341,0,0,1-.122-.742,2.4,2.4,0,0,1,2.375-2.375,2.341,2.341,0,0,1,.743.121A8.169,8.169,0,0,0,249.059,252.055Z" fill="blue"/>
      <path d="M264,251.313A3.339,3.339,0,0,0,260.687,248a3.246,3.246,0,0,0-1.807.555c-.178-.069-.352-.145-.536-.2v4.142a4.276,4.276,0,0,1,1.161,1.161h4.142c-.057-.184-.133-.358-.2-.536A3.239,3.239,0,0,0,264,251.313Zm-1.059.742a8.169,8.169,0,0,0-3-3,2.34,2.34,0,0,1,.742-.121,2.4,2.4,0,0,1,2.375,2.375A2.341,2.341,0,0,1,262.941,252.055Z" fill="blue"/>
      <path d="M252.495,258.344h-4.142c.057.184.133.358.2.536a3.24,3.24,0,0,0-.556,1.808A3.338,3.338,0,0,0,251.312,264a3.24,3.24,0,0,0,1.808-.556c.178.07.352.146.536.2v-4.142A4.276,4.276,0,0,1,252.495,258.344Zm-1.183,4.719a2.4,2.4,0,0,1-2.375-2.375,2.342,2.342,0,0,1,.122-.743,8.169,8.169,0,0,0,3,3A2.343,2.343,0,0,1,251.312,263.063Z" fill="blue"/>
    </g>
  </symbol>
  <symbol xmlns="http://www.w3.org/2000/svg" viewBox="0 0 16 16" id="planet">
    <path d="M10,2a8,8,0,1,0,8,8A8,8,0,0,0,10,2ZM9.2,16.344A6.391,6.391,0,0,1,3.6,10a6.494,6.494,0,0,1,.168-1.432L7.6,12.4v.8a1.6,1.6,0,0,0,1.6,1.6Zm5.52-2.032A1.587,1.587,0,0,0,13.2,13.2h-.8V10.8a.8.8,0,0,0-.8-.8H6.8V8.4H8.4a.8.8,0,0,0,.8-.8V6h1.6a1.6,1.6,0,0,0,1.6-1.6V4.072a6.386,6.386,0,0,1,2.32,10.24Z" transform="translate(-2 -2)" fill="blue"/>
  </symbol>
  <symbol xmlns="http://www.w3.org/2000/svg" viewBox="0 0 10 10" id="edit" fill="currentColor">
    <path d="M3,10.914V13H5.083l6.144-6.144L9.144,4.771Zm9.838-5.671a.553.553,0,0,0,0-.783l-1.3-1.3a.553.553,0,0,0-.783,0L9.738,4.177,11.821,6.26l1.017-1.017Z" transform="translate(-3 -2.998)"/>
  </symbol>
  <symbol xmlns="http://www.w3.org/2000/svg" viewBox="0 0 10 11" id="trashcan">
    <g id="Icon_feather-trash-2" data-name="Icon feather-trash-2" transform="translate(-301 -390.5)">
      <path d="M301.5,393h9" fill="none" stroke="currentColor" stroke-linecap="round" stroke-linejoin="round" stroke-width="1"/>
      <path d="M309.5,393v7a1,1,0,0,1-1,1h-5a1,1,0,0,1-1-1v-7m1.5,0v-1a1,1,0,0,1,1-1h2a1,1,0,0,1,1,1v1" fill="none" stroke="currentColor" stroke-linecap="round" stroke-linejoin="round" stroke-width="1"/>
      <path d="M305,395.5v3" fill="none" stroke="currentColor" stroke-linecap="round" stroke-linejoin="round" stroke-width="1"/>
      <path d="M307,395.5v3" fill="none" stroke="currentColor" stroke-linecap="round" stroke-linejoin="round" stroke-width="1"/>
    </g>
  </symbol>
</svg>