<?xml version="1.0" encoding="utf-8"?>
<!-- Generator: Adobe Illustrator 22.1.0, SVG Export Plug-In . SVG Version: 6.00 Build 0)  -->
<svg version="1.1" id="Layer_2_1_" xmlns="http://www.w3.org/2000/svg" xmlns:xlink="http://www.w3.org/1999/xlink" x="0px" y="0px"
	 viewBox="0 0 78 70" style="enable-background:new 0 0 78 70;" xml:space="preserve">
<path d="M44,52h19V33H44V52z M47,36h13v13H47V36z"/>
<path d="M65,2H14L3,19l0,0c0.2,3.2,2.2,6,5,7.2V68h63V26.2c2.8-1.3,4.8-4,5-7.2l0,0L65,2z M15.5,5h48l7,11h-62L15.5,5z M59,19
	c-0.3,2.8-2.6,5-5.5,5s-5.3-2.2-5.5-5H59z M45,19c-0.3,2.8-2.6,5-5.5,5s-5.3-2.2-5.5-5H45z M31,19c-0.3,2.8-2.6,5-5.5,5
	s-5.3-2.2-5.5-5H31z M6,19h11c-0.3,2.8-2.6,5-5.5,5S6.3,21.8,6,19z M35,65H19V36h16V65z M68,65H38V33H16v32h-5V27c0.2,0,0.3,0,0.5,0
	c2.9,0,5.5-1.5,7-3.7c1.5,2.2,4.1,3.7,7,3.7s5.5-1.5,7-3.7c1.5,2.2,4.1,3.7,7,3.7s5.5-1.5,7-3.7c1.5,2.2,4.1,3.7,7,3.7
	s5.5-1.5,7-3.7c1.5,2.2,4.1,3.7,7,3.7c0.2,0,0.3,0,0.5,0V65z M67.5,24c-2.9,0-5.3-2.2-5.5-5h11C72.8,21.8,70.4,24,67.5,24z"/>
</svg>
